<svg width="36" height="35" viewBox="0 0 36 35" fill="none" xmlns="http://www.w3.org/2000/svg">
<path d="M2.87082 3.2996C2.87082 0.992974 2.88618 0.819645 3.11088 0.597571C3.24292 0.467079 3.45898 0.360313 3.59102 0.360313C3.72305 0.360313 3.93911 0.467079 4.07115 0.597571C4.29585 0.819645 4.31122 0.992974 4.31122 3.2996C4.31122 6.04325 4.25144 6.29176 3.59102 6.29176C2.93059 6.29176 2.87082 6.04325 2.87082 3.2996Z" fill="#F03434"/>
<path d="M4.93119 3.37742C4.89254 0.951454 4.90058 0.845501 5.14125 0.60765C5.45646 0.29613 5.80299 0.292457 6.11172 0.597571C6.33666 0.819882 6.35178 0.992979 6.35178 3.34634C6.35178 6.10672 6.30626 6.29176 5.6276 6.29176C5.01723 6.29176 4.97476 6.11431 4.93119 3.37742Z" fill="#F03434"/>
<path fill-rule="evenodd" clip-rule="evenodd" d="M29.1348 0.880734C29.3127 0.711688 29.7283 0.445958 30.0584 0.29008C31.3036 -0.297845 32.8095 0.0267259 33.7844 1.0932C34.0268 1.35834 34.4075 1.95588 34.6304 2.42103C35.7384 4.73346 35.2698 7.64841 33.5197 9.32939L32.9958 9.83274L33.1776 13.0628C33.2776 14.8394 33.3593 16.4983 33.3593 16.7493V17.2056H34.4601C35.8693 17.2056 36 17.3021 36 18.3425C36 20.898 34.9464 24.0804 33.3229 26.428C31.8646 28.5367 30.2558 30.0315 27.8037 31.5556L26.6974 32.2432L26.6628 33.258C26.6312 34.1879 26.5995 34.3032 26.2846 34.6364L25.941 35L22.019 34.9991L18.0969 34.9982C12.0256 34.9969 10.185 34.9626 9.95278 34.8468C9.55835 34.6502 9.3677 34.0661 9.35929 33.029L9.35261 32.1849L8.42236 31.6475C6.26332 30.4003 4.01093 28.3652 2.83172 26.5962C1.45098 24.5249 0.493852 22.1595 0.177805 20.0376C-0.059021 18.447 -0.0592414 17.8026 0.176984 17.4694C0.347311 17.229 0.462463 17.2056 1.4807 17.2056H2.59781L2.67184 16.2269C2.71265 15.6886 2.80877 14.1284 2.88559 12.7597L3.0252 10.2711L2.62178 9.97188C1.87602 9.41883 1.32109 8.75736 1.13924 8.20479C0.998204 7.77642 0.952326 6.89179 0.93024 4.17234C0.903472 0.873862 0.914062 0.679904 1.12916 0.5245C1.42444 0.311086 1.67449 0.31691 2.00386 0.545034C2.26901 0.728553 2.27065 0.751197 2.27065 4.11563L2.27065 4.2516C2.27054 6.9109 2.27051 7.70494 2.65597 8.21369C2.82006 8.43026 3.05401 8.59513 3.38755 8.83019L3.42779 8.85855C3.88307 9.17968 4.22147 9.51303 4.26468 9.68315C4.33886 9.97545 4.10525 16.4564 4.0031 16.9387C3.94933 17.1927 3.98246 17.2056 4.6855 17.2056H5.4244L5.34938 16.1083C5.13692 13.0036 5.00696 9.96311 5.07526 9.6943C5.11919 9.52133 5.44816 9.16093 5.84199 8.85439C5.8959 8.81244 5.94704 8.77313 5.99555 8.73583C6.2564 8.53528 6.44134 8.3931 6.57317 8.21294C6.89439 7.77397 6.90021 7.10958 6.92025 4.82629L6.92025 4.82566C6.92178 4.65173 6.92339 4.4684 6.92522 4.27507C6.95727 0.8945 6.9668 0.768516 7.20843 0.567914C7.53708 0.295186 7.85652 0.305269 8.15228 0.597571C8.38082 0.823441 8.39235 0.992975 8.39235 4.13486C8.39235 8.26576 8.36706 8.37726 7.17045 9.52322L6.33561 10.3228L6.42012 11.5696C6.46657 12.2554 6.54178 12.8164 6.58728 12.8164C6.63277 12.8164 6.79937 12.6803 6.95746 12.514C7.54706 11.8937 9.16092 11.0365 10.0128 10.8909C10.1746 10.8633 10.2403 10.7741 10.2145 10.6172C9.95094 9.01491 10.1523 8.29531 11.0782 7.5305C11.5499 7.14069 11.6332 7.00769 11.6332 6.64386C11.6332 6.40838 11.7818 5.92615 11.9633 5.5724C12.3987 4.72385 13.0708 4.25515 13.9563 4.18267C14.7551 4.11718 15.3208 4.29168 16.0208 4.81982C16.504 5.18449 16.6336 5.2241 17.3406 5.2241C18.5337 5.2241 19.4589 5.82342 20.0013 6.94767L20.1901 7.33856L21.103 7.27806C21.6942 7.23891 22.1219 7.1446 22.3162 7.01031C23.6072 6.11858 25.0347 6.08298 25.9976 6.91861C26.7956 7.61093 27.0224 8.45984 26.7475 9.72633C26.6707 10.0801 26.659 10.4486 26.719 10.6265C26.8161 10.9144 26.8682 10.9296 27.8993 10.9716C28.4926 10.9957 29.1267 11.0531 29.3081 11.0993L29.6382 11.1832L29.6381 10.4873C29.6379 9.81209 29.6206 9.77448 29.0579 9.22879C26.9446 7.17923 26.9838 2.92459 29.1348 0.880734ZM34.0465 21.8618C34.0142 21.9435 33.8204 22.4372 33.6157 22.9591C32.3973 26.0681 29.8877 28.8149 26.5774 30.663C26.2473 30.8473 25.8286 31.1345 25.6471 31.3011C25.338 31.5848 25.317 31.667 25.317 32.5903V33.5765H18.055H10.793L10.7913 32.7164C10.7903 32.2434 10.7218 31.7243 10.6392 31.563C10.5535 31.3956 9.97126 30.9627 9.28275 30.5546C7.53435 29.5183 7.03229 29.146 5.93518 28.0724C4.26468 26.4377 2.97759 24.5097 2.20817 22.4894L1.91266 21.7135H18.009C30.8372 21.7135 34.0933 21.7437 34.0465 21.8618ZM34.4533 20.0788C34.4977 19.9603 34.5532 19.5723 34.5768 19.2166L34.6196 18.5699L18.0077 18.5397L1.39584 18.5097L1.47619 19.3633C1.52036 19.8327 1.57387 20.234 1.59511 20.255C1.61636 20.2761 9.00012 20.2936 18.0032 20.2938C33.7121 20.2943 34.376 20.2856 34.4533 20.0788ZM13.454 12.1777C14.4037 12.4173 15.1303 12.7769 15.9345 13.4051C16.988 14.2282 17.6141 15.3071 17.8181 16.6513L17.9036 17.2145L16.7374 17.1805L15.5713 17.1463L15.5515 16.552C15.5382 16.1505 15.4445 15.8367 15.263 15.5847C15.1152 15.3795 14.9942 15.1631 14.9942 15.1039C14.9942 14.9243 14.3538 14.3906 14.0339 14.3035C13.8689 14.2587 13.51 14.1089 13.2363 13.9709C12.759 13.7299 12.6907 13.7261 11.5558 13.8773C10.9052 13.9639 10.2271 14.1075 10.049 14.1965C9.70716 14.3673 8.99394 15.0625 8.9931 15.226C8.99274 15.2789 8.85542 15.6087 8.68786 15.9586C8.47864 16.3959 8.40808 16.6922 8.46221 16.9057L8.54122 17.2166L7.65656 17.1814L6.7719 17.1463L6.73755 16.0616L6.70321 14.9767L7.2777 14.2264C8.67321 12.4038 11.1259 11.5902 13.454 12.1777ZM14.0543 16.3179C13.8812 15.8075 13.772 15.683 13.2537 15.4054C12.9236 15.2286 12.5455 15.0873 12.4135 15.0913C11.7907 15.1103 10.6261 15.4202 10.4289 15.6193C10.183 15.8679 9.70386 17.0387 9.80661 17.1403C9.84298 17.1762 10.863 17.2056 12.0734 17.2056C13.7589 17.2056 14.2717 17.1709 14.2644 17.0573C14.2591 16.9758 14.1645 16.6431 14.0543 16.3179ZM14.7895 5.59874C14.9322 5.67419 15.3141 5.94301 15.6378 6.19593C16.2079 6.64126 16.2483 6.65347 16.911 6.57933C17.9358 6.46473 18.441 6.77674 18.8895 7.8011L19.1088 8.30194L18.7967 8.70647C18.4809 9.11562 18.1963 9.7555 18.0621 10.3583C18.0125 10.5807 17.8536 10.7515 17.5733 10.8837C17.3448 10.9914 17.1214 11.0436 17.077 10.9997C16.9842 10.9079 17.1765 10.1887 17.5346 9.28858C17.8357 8.53125 17.7636 8.10764 17.3144 7.99624C16.8869 7.89019 16.663 8.04784 16.3559 8.67124L16.0973 9.19652L15.7808 8.48961C15.4325 7.71105 15.32 7.60121 14.8682 7.59848C14.2092 7.59456 14.1085 8.08913 14.5741 9.04302C14.7391 9.38112 14.8741 9.6721 14.8741 9.68966C14.8741 9.7071 14.6512 9.64375 14.3789 9.54885C13.6602 9.29818 13.3498 9.32997 13.1194 9.67756C12.7803 10.1891 13.0171 10.4553 14.209 10.9028C14.7834 11.1184 15.2295 11.3184 15.2004 11.3471C15.1713 11.376 14.9954 11.3423 14.8096 11.2725C14.3264 11.0909 12.8648 10.7185 12.2522 10.6209C11.8072 10.55 11.7059 10.4793 11.562 10.1387C11.4692 9.91921 11.3932 9.65254 11.3932 9.54613C11.3932 9.20803 11.7679 8.55711 12.0056 8.48261C12.1316 8.44298 12.3964 8.27619 12.5941 8.11177C12.9041 7.85399 12.9536 7.73217 12.9536 7.22646C12.9536 5.87385 13.8339 5.09338 14.7895 5.59874ZM25.3914 8.26446C25.2812 8.00395 25.084 7.78568 24.8949 7.71462C24.3014 7.49159 23.7663 7.61746 23.0669 8.14476C22.7614 8.37502 22.4551 8.46517 21.7353 8.53694C21.1814 8.5921 20.6668 8.71655 20.473 8.84194C20.1495 9.05156 19.6415 9.80639 19.515 10.2658C19.4791 10.3963 19.3902 10.7308 19.3174 11.0089C19.1667 11.5856 18.7177 11.9296 17.6691 12.2722L17.0432 12.4768L17.6894 13.2511C18.0448 13.677 18.4616 14.3131 18.6155 14.6645C18.7693 15.016 18.9223 15.3019 18.9553 15.2997C19.1256 15.2891 20.1555 13.6671 20.1548 13.4106C20.1543 13.2469 20.0772 12.6083 19.9835 11.9915C19.7972 10.765 19.8552 10.493 20.328 10.3758C20.7713 10.2658 21.0961 10.5075 21.1786 11.0087C21.3266 11.9071 21.391 11.9473 21.7673 11.3768C22.7335 9.91137 23.2259 9.574 23.678 10.0676C23.9819 10.3994 23.9251 10.6202 23.2977 11.5465C22.9792 12.0166 22.6793 12.4674 22.6312 12.5483C22.5635 12.6619 22.7094 12.6783 23.2715 12.6202C23.8747 12.5579 24.0406 12.5816 24.2381 12.7583C24.5329 13.0219 24.5456 13.43 24.2667 13.6787C24.1073 13.8209 22 14.2399 21.4444 14.2399C21.2987 14.2399 19.5554 16.9194 19.5554 17.1434C19.5554 17.1809 20.4285 17.1969 21.4954 17.179L23.4354 17.1463L23.4089 16.2541C23.3793 15.2573 23.4311 15.1723 24.4456 14.5504C25.5787 13.8558 25.9544 12.5839 25.439 11.1869C25.18 10.4848 25.1786 10.4526 25.3743 9.58349C25.5546 8.78274 25.5562 8.65463 25.3914 8.26446ZM28.9133 12.3904C29.0545 12.4348 29.1628 12.4689 29.2423 12.5361C29.503 12.7564 29.4556 13.3326 29.2529 15.7968C29.2387 15.9702 29.2237 16.153 29.2079 16.3456L29.1376 17.2056H27.0028H24.8679L24.7846 16.5855C24.7286 16.1686 24.7451 15.9508 24.8347 15.9212C24.9081 15.897 25.2491 15.6902 25.5926 15.4616L26.2173 15.0458L27.0207 15.1767C28.5349 15.4234 28.918 15.329 28.918 14.7091C28.918 14.2778 28.6064 14.0463 27.8978 13.9511C26.8752 13.8138 26.8593 13.8031 26.9533 13.3114C26.999 13.0718 27.0351 12.7956 27.0334 12.6977C27.0316 12.5999 27.0834 12.4531 27.1486 12.3715C27.2961 12.1867 28.2659 12.1784 28.8101 12.3574C28.8463 12.3693 28.8807 12.3801 28.9133 12.3904ZM33.8078 5.45484C33.9086 3.81254 33.3627 2.36882 32.373 1.66025C31.5368 1.06165 30.6294 1.23545 29.8416 2.14498C29.1477 2.9462 28.8785 3.77351 28.8785 5.10547C28.8785 6.70436 29.1655 7.41032 30.2218 8.41072L31.0186 9.16533L30.9901 10.3681C30.9629 11.5146 30.795 14.5035 30.6542 16.3456L30.5885 17.2056H31.3137H32.0389L32.037 16.7608C32.0359 16.5162 31.9561 15.0881 31.8594 13.5874C31.7629 12.0868 31.6828 10.4966 31.6813 10.0535L31.6788 9.24813L32.4631 8.42283C33.4499 7.38435 33.7268 6.77317 33.8078 5.45484Z" fill="#F03434"/>
</svg>
