<svg width="36" height="19" viewBox="0 0 36 19" fill="none" xmlns="http://www.w3.org/2000/svg">
<path fill-rule="evenodd" clip-rule="evenodd" d="M7.73077 0.0493681C7.27594 0.122778 6.69485 0.587735 6.51151 1.02513C6.4273 1.22588 6.35846 1.67476 6.35846 2.02266V2.65525H4.93971C3.66906 2.65525 3.48857 2.67932 3.2106 2.88554C2.56353 3.3655 2.46274 3.70235 2.44462 5.44503L2.42804 7.03138L1.64616 7.10237C0.26792 7.22764 0.00288378 7.59665 2.93679e-05 9.39436C-0.0031544 11.3765 0.250685 11.7569 1.66098 11.8842L2.44067 11.9545L2.45561 13.5409C2.47252 15.3407 2.58613 15.7486 3.18973 16.1776C3.5237 16.415 3.69146 16.4437 4.94696 16.4781L6.33486 16.5161L6.37658 17.2513C6.40941 17.8304 6.47605 18.0581 6.69024 18.3243C7.10183 18.8355 7.40428 18.9355 8.69809 18.9877C10.1628 19.0469 10.7188 18.8798 11.1023 18.2652C11.3443 17.8773 11.3558 17.7505 11.4086 14.8537L11.4635 11.8451L14.5375 11.8575C16.2282 11.8643 19.1771 11.8765 21.0905 11.8848L24.5697 11.8998L24.6036 14.8264C24.6427 18.1846 24.6734 18.3094 25.5734 18.7706C26.018 18.9983 26.1872 19.0191 27.3473 18.9894C28.448 18.961 28.6734 18.9237 28.9392 18.726C29.4013 18.3823 29.6468 17.8826 29.7135 17.1505L29.7732 16.4948H31.0496C32.5867 16.4948 32.9595 16.3515 33.3381 15.6156C33.5615 15.1816 33.5852 14.9803 33.5852 13.5177V11.8998L34.1615 11.8937C34.9717 11.8849 35.4557 11.6902 35.7496 11.2546C35.9791 10.9143 36.0004 10.7614 36 9.44941C35.9994 7.40171 35.7723 7.08608 34.2993 7.08608H33.6006L33.5654 5.41768C33.5329 3.87608 33.5108 3.72214 33.2746 3.39207C32.8324 2.77416 32.4828 2.66007 31.0327 2.65974L29.7427 2.65942L29.7403 2.05559C29.7372 1.28135 29.4282 0.594307 28.9531 0.305702C28.6388 0.114793 28.4002 0.0850333 27.1796 0.0847051C25.5872 0.0842675 25.2954 0.181209 24.8771 0.8501C24.6505 1.21244 24.6347 1.39197 24.5828 4.1869L24.5279 7.14078H17.9957H11.4635L11.4086 4.07749C11.3479 0.687964 11.3315 0.610288 10.5964 0.221032C10.2523 0.0388754 8.46106 -0.0684591 7.73077 0.0493681ZM28.5351 9.45323C28.5351 2.48852 28.5162 1.61275 28.3626 1.45959C28.2289 1.32634 27.9443 1.28771 27.0973 1.28771C26.0254 1.28771 26.0025 1.29307 25.8975 1.56833C25.8316 1.74096 25.7904 4.80415 25.7904 9.53048C25.7904 16.3057 25.8106 17.2405 25.9614 17.455C26.1184 17.6785 26.2203 17.6982 27.22 17.6982C28.1831 17.6982 28.3207 17.6739 28.4214 17.4866C28.4967 17.3463 28.5351 14.6358 28.5351 9.45323ZM32.2458 4.04467C32.456 4.25417 32.4331 14.7362 32.2217 15.0243C32.0876 15.207 31.9293 15.2366 31.0858 15.2366C30.4165 15.2366 30.0482 15.189 29.9243 15.0865C29.7598 14.9505 29.7427 14.4272 29.7427 9.55617C29.7427 5.51744 29.7755 4.14324 29.8744 4.04467C29.9586 3.96075 30.3868 3.91339 31.0601 3.91339C31.7334 3.91339 32.1616 3.96075 32.2458 4.04467ZM24.5828 10.5887V9.49383V8.39892H17.9917H11.4007L11.4321 9.4656L11.4635 10.5323L18.0231 10.5605L24.5828 10.5887ZM10.0692 1.41899C10.2598 1.60891 10.2598 17.377 10.0692 17.5669C9.85973 17.7757 7.95551 17.7425 7.73857 17.5263C7.58499 17.3733 7.5661 16.5037 7.5661 9.60169C7.5661 4.82908 7.60728 1.74107 7.67315 1.56833C7.7781 1.2934 7.80203 1.28771 8.85882 1.28771C9.55134 1.28771 9.98467 1.33475 10.0692 1.41899ZM6.35846 9.59677C6.35846 4.8885 6.33805 4.2369 6.186 4.08527C5.96906 3.86909 4.06484 3.83593 3.85537 4.04467C3.75656 4.14313 3.72362 5.50357 3.72362 9.49394C3.72362 13.9175 3.74986 14.8476 3.87963 15.0243C4.01389 15.207 4.17243 15.2366 5.01569 15.2366C5.68494 15.2366 6.05315 15.189 6.17699 15.0865C6.34123 14.9506 6.35846 14.4288 6.35846 9.59677ZM2.46109 9.49295V10.5323L1.9574 10.5649C1.63694 10.5857 1.41683 10.5458 1.35205 10.4555C1.29617 10.3773 1.26707 9.88023 1.2876 9.35072L1.32482 8.38807L1.89296 8.42079L2.46109 8.45362V9.49295ZM34.6691 10.4396C34.7448 10.3487 34.7785 9.94009 34.7571 9.37294L34.7225 8.45362L34.1538 8.42058L33.5852 8.38743V9.48726V10.587H34.0658C34.3348 10.587 34.6003 10.5221 34.6691 10.4396Z" fill="#8844EE"/>
</svg>
