<svg width="56" height="56" viewBox="0 0 56 56" fill="none" xmlns="http://www.w3.org/2000/svg">
<path d="M22.4874 11.1902C20.4434 9.62697 19.3159 7.24149 19.1042 4.03281L19.0361 3L19.9554 3.07025C21.1887 3.16439 23.0585 3.49431 23.8454 3.75643C24.888 4.10378 26.3072 4.83149 26.8408 5.29216C27.927 6.23032 28.7883 7.83876 29.1158 9.54073C29.2996 10.4953 29.3835 11.6414 29.2697 11.6414C29.2262 11.6414 29.0389 11.4223 28.8535 11.1543C28.0404 9.97914 26.1897 8.28496 24.7874 7.43183C24.094 7.00992 23.1962 6.57869 23.1962 6.6674C23.1962 6.6915 23.4716 6.89711 23.8082 7.12427C24.5546 7.62801 26.0481 9.07924 26.8214 10.0518C27.4037 10.7845 28.5616 12.5544 28.5616 12.7121C28.5616 12.7601 27.9928 12.7742 27.2976 12.7436C25.2338 12.6524 23.7894 12.186 22.4874 11.1902Z" fill="#6FB790"/>
<path d="M32.1426 8.14287C33.0084 7.00896 34.3296 6.38345 36.1067 6.26605L36.6787 6.22827L36.6398 6.73821C36.5877 7.42239 36.4049 8.45969 36.2598 8.89619C36.0674 9.47454 35.6643 10.2619 35.4092 10.5578C34.8896 11.1604 33.9988 11.6382 33.0562 11.8199C32.5275 11.9219 31.8927 11.9684 31.8927 11.9053C31.8927 11.8812 32.0141 11.7773 32.1625 11.6744C32.8133 11.2233 33.7517 10.1967 34.2242 9.41873C34.4578 9.03408 34.6967 8.53604 34.6475 8.53604C34.6342 8.53604 34.5203 8.68882 34.3945 8.87553C34.1155 9.2896 33.3117 10.1181 32.7731 10.5471C32.3673 10.8701 31.387 11.5125 31.2997 11.5125C31.2731 11.5125 31.2653 11.1969 31.2823 10.8113C31.3328 9.6664 31.5911 8.86511 32.1426 8.14287Z" fill="#6FB790"/>
<g filter="url(#filter0_d_49_6092)">
<circle cx="27.8198" cy="33.1802" r="19.8198" fill="#5BAD81" fill-opacity="0.87" shape-rendering="crispEdges"/>
</g>
<circle cx="27.8575" cy="33.1427" r="17.6051" fill="#A3E09F" fill-opacity="0.87"/>
<circle cx="27.8574" cy="33.1426" r="3.04054" fill="#E8EFAD" fill-opacity="0.87"/>
<path d="M20.7563 33.3315C19.593 32.4427 15.2688 31.0576 15.2951 33.4071C15.3183 35.4742 19.2943 34.3779 20.7563 33.3315Z" fill="#578858" stroke="#467446" stroke-width="0.0750751"/>
<path d="M34.9151 32.928C36.0784 33.8168 40.4026 35.202 40.3762 32.8525C40.3531 30.7853 36.3771 31.8817 34.9151 32.928Z" fill="#578858" stroke="#467446" stroke-width="0.0750751"/>
<path d="M27.6574 26.0498C28.55 24.8894 29.9495 20.5699 27.5999 20.5884C25.5327 20.6048 26.6159 24.5844 27.6574 26.0498Z" fill="#578858" stroke="#467446" stroke-width="0.0750751"/>
<path d="M28.0145 40.21C27.1218 41.3703 25.7224 45.6899 28.072 45.6713C30.1392 45.655 29.056 41.6754 28.0145 40.21Z" fill="#578858" stroke="#467446" stroke-width="0.0750751"/>
<path d="M33.0696 37.901C33.2894 39.3484 35.4387 43.348 37.0514 41.6393C38.4703 40.1358 34.8482 38.1634 33.0696 37.901Z" fill="#578858" stroke="#467446" stroke-width="0.0750751"/>
<path d="M22.6018 28.3585C22.382 26.9112 20.2327 22.9115 18.62 24.6203C17.201 26.1237 20.8232 28.0961 22.6018 28.3585Z" fill="#578858" stroke="#467446" stroke-width="0.0750751"/>
<path d="M23.085 38.3818C21.6384 38.6071 17.647 40.7717 19.3619 42.3779C20.8707 43.791 22.8293 40.1614 23.085 38.3818Z" fill="#578858" stroke="#467446" stroke-width="0.0750751"/>
<path d="M32.5874 27.8777C34.0339 27.6524 38.0254 25.4879 36.3105 23.8817C34.8017 22.4685 32.8431 26.0982 32.5874 27.8777Z" fill="#578858" stroke="#467446" stroke-width="0.0750751"/>
<defs>
<filter id="filter0_d_49_6092" x="8" y="13.3604" width="41.0661" height="41.4415" filterUnits="userSpaceOnUse" color-interpolation-filters="sRGB">
<feFlood flood-opacity="0" result="BackgroundImageFix"/>
<feColorMatrix in="SourceAlpha" type="matrix" values="0 0 0 0 0 0 0 0 0 0 0 0 0 0 0 0 0 0 127 0" result="hardAlpha"/>
<feMorphology radius="0.15015" operator="dilate" in="SourceAlpha" result="effect1_dropShadow_49_6092"/>
<feOffset dx="1.12613" dy="1.5015"/>
<feGaussianBlur stdDeviation="0.0750751"/>
<feComposite in2="hardAlpha" operator="out"/>
<feColorMatrix type="matrix" values="0 0 0 0 0.272705 0 0 0 0 0.4532 0 0 0 0 0.275616 0 0 0 0.2 0"/>
<feBlend mode="normal" in2="BackgroundImageFix" result="effect1_dropShadow_49_6092"/>
<feBlend mode="normal" in="SourceGraphic" in2="effect1_dropShadow_49_6092" result="shape"/>
</filter>
</defs>
</svg>
