<svg width="56" height="56" viewBox="0 0 56 56" fill="none" xmlns="http://www.w3.org/2000/svg">
<g filter="url(#filter0_d_49_6175)">
<path d="M22.6189 11.1902C20.5563 9.62697 19.4185 7.24148 19.205 4.03281L19.1362 3L20.0638 3.07025C21.3084 3.16439 23.1952 3.4943 23.9892 3.75643C25.0413 4.10378 26.4734 4.83149 27.0118 5.29216C28.1079 6.23031 28.9771 7.83875 29.3075 9.54072C29.493 10.4953 29.5776 11.6414 29.4628 11.6414C29.419 11.6414 29.23 11.4223 29.0429 11.1543C28.2223 9.97913 26.3548 8.28496 24.9397 7.43182C24.2401 7.00992 23.3341 6.57869 23.3341 6.66739C23.3341 6.69149 23.612 6.89711 23.9516 7.12427C24.7048 7.62801 26.212 9.07923 26.9922 10.0518C27.5799 10.7845 28.7483 12.5544 28.7483 12.7121C28.7483 12.7601 28.1743 12.7742 27.4729 12.7435C25.3903 12.6524 23.9327 12.186 22.6189 11.1902Z" fill="#6FB790"/>
<path d="M32.3621 8.14286C33.2358 7.00896 34.569 6.38345 36.3622 6.26605L36.9395 6.22827L36.9002 6.73821C36.8476 7.42239 36.6632 8.45968 36.5167 8.89619C36.3226 9.47453 35.9159 10.2619 35.6584 10.5578C35.1341 11.1604 34.2352 11.6382 33.284 11.8199C32.7505 11.9219 32.1099 11.9684 32.1099 11.9053C32.1099 11.8812 32.2324 11.7773 32.3822 11.6744C33.0389 11.2233 33.9858 10.1967 34.4626 9.41873C34.6984 9.03408 34.9394 8.53604 34.8898 8.53604C34.8763 8.53604 34.7614 8.68881 34.6345 8.87553C34.3529 9.2896 33.5419 10.1181 32.9983 10.5471C32.5889 10.8701 31.5997 11.5125 31.5116 11.5125C31.4847 11.5125 31.4768 11.1969 31.494 10.8113C31.5449 9.6664 31.8056 8.86511 32.3621 8.14286Z" fill="#6FB790"/>
<ellipse cx="28" cy="33.1802" rx="20" ry="19.8198" fill="#FAB650" fill-opacity="0.73"/>
<ellipse cx="28.0381" cy="33.1427" rx="17.7652" ry="17.6051" fill="#FFF2D9" fill-opacity="0.87"/>
<path d="M28.3184 37.8974C28.1762 36.3044 30.1719 35.4785 31.2154 36.6985L37.1084 43.588C37.6628 44.2362 37.638 45.2053 36.9981 45.7643C34.9922 47.5168 33.1985 48.2126 30.7149 48.3215C29.88 48.3581 29.1932 47.6998 29.1192 46.8708L28.3184 37.8974Z" fill="#F8C77D"/>
<path d="M27.9734 34.0318C27.9298 33.5438 28.3656 33.3667 28.6865 33.742L37.6623 44.2355C37.8876 44.4989 37.9223 44.9008 37.7336 45.0844C35.155 47.5929 33.074 48.374 29.7474 48.3357C29.4832 48.3327 29.2223 48.0259 29.192 47.6864L27.9734 34.0318Z" fill="#F8C77D"/>
<path d="M27.6435 28.3441C27.7857 29.937 25.79 30.7629 24.7465 29.543L18.8535 22.6534C18.2991 22.0053 18.3239 21.0362 18.9638 20.4771C20.9697 18.7247 22.7635 18.0289 25.247 17.92C26.0819 17.8834 26.7687 18.5417 26.8427 19.3707L27.6435 28.3441Z" fill="#F8C77D"/>
<path d="M27.9885 32.2097C28.0321 32.6976 27.5964 32.8747 27.2754 32.4995L18.2996 22.0059C18.0744 21.7425 18.0396 21.3407 18.2283 21.1571C20.8069 18.6486 22.8879 17.8675 26.2145 17.9058C26.4788 17.9088 26.7396 18.2155 26.7699 18.555L27.9885 32.2097Z" fill="#F8C77D"/>
<path d="M24.8616 36.7479C25.8956 35.5202 27.8969 36.3311 27.7671 37.9252L27.0335 46.9279C26.9645 47.7751 26.2564 48.4444 25.405 48.3927C22.736 48.2308 20.9699 47.4688 19.1333 45.8087C18.5158 45.2505 18.4983 44.3035 19.0366 43.6644L24.8616 36.7479Z" fill="#F8C77D"/>
<path d="M27.3702 33.7693C27.687 33.3932 28.1217 33.5726 28.0818 34.0629L26.9645 47.7745C26.9365 48.1186 26.6749 48.4276 26.4104 48.4256C22.7971 48.3986 20.7668 47.4961 18.4378 45.1419C18.2527 44.9548 18.2864 44.5551 18.5068 44.2934L27.3702 33.7693Z" fill="#F8C77D"/>
<path d="M31.1872 29.5106C30.1532 30.7384 28.1519 29.9275 28.2818 28.3334L29.0153 19.3306C29.0843 18.4835 29.7924 17.8142 30.6439 17.8658C33.3128 18.0278 35.0789 18.7898 36.9155 20.4499C37.533 21.008 37.5505 21.955 37.0122 22.5942L31.1872 29.5106Z" fill="#F8C77D"/>
<path d="M28.6786 32.4893C28.3619 32.8654 27.9271 32.686 27.9671 32.1957L29.0843 18.4841C29.1123 18.1399 29.3739 17.8309 29.6384 17.8329C33.2517 17.86 35.2821 18.7625 37.6111 21.1167C37.7961 21.3037 37.7624 21.7035 37.542 21.9651L28.6786 32.4893Z" fill="#F8C77D"/>
<path d="M23.1781 33.4924C24.7803 33.3194 25.6641 35.3017 24.4561 36.3589L17.6385 42.3256C17.0028 42.882 16.0352 42.8732 15.4585 42.2513C13.6459 40.2965 12.907 38.5314 12.7474 36.0683C12.694 35.2432 13.3341 34.5551 14.1596 34.4659L23.1781 33.4924Z" fill="#F8C77D"/>
<path d="M27.1088 33.0681C27.6002 33.015 27.7877 33.4431 27.4157 33.7687L17.011 42.8748C16.7499 43.1033 16.3452 43.1459 16.1561 42.9627C13.573 40.4587 12.7427 38.4128 12.7138 35.116C12.7115 34.8541 13.0157 34.5894 13.3576 34.5525L27.1088 33.0681Z" fill="#F8C77D"/>
<path d="M32.8776 32.6214C31.2753 32.7943 30.3916 30.8121 31.5995 29.7549L38.4171 23.7882C39.0529 23.2318 40.0205 23.2406 40.5972 23.8625C42.4098 25.8173 43.1487 27.5823 43.3082 30.0454C43.3617 30.8706 42.7216 31.5587 41.896 31.6478L32.8776 32.6214Z" fill="#F8C77D"/>
<path d="M28.9468 33.0457C28.4554 33.0987 28.2679 32.6706 28.64 32.345L39.0446 23.239C39.3058 23.0105 39.7105 22.9678 39.8996 23.1511C42.4827 25.655 43.3129 27.701 43.3418 30.9977C43.3441 31.2596 43.04 31.5243 42.6981 31.5612L28.9468 33.0457Z" fill="#F8C77D"/>
<path d="M24.3623 29.8561C25.587 30.8943 24.7349 32.891 23.1303 32.7431L14.0743 31.9087C13.2301 31.8309 12.574 31.1265 12.6361 30.2841C12.8315 27.6363 13.6229 25.8936 15.3244 24.091C15.8943 23.4872 16.8383 23.4778 17.4691 24.0126L24.3623 29.8561Z" fill="#F8C77D"/>
<path d="M27.3679 32.404C27.7436 32.7224 27.5573 33.151 27.0631 33.1055L13.2414 31.8319C12.8945 31.8 12.5859 31.537 12.5911 31.275C12.6622 27.6948 13.5975 25.6938 16.0013 23.4146C16.1922 23.2335 16.5952 23.2718 16.8565 23.4933L27.3679 32.404Z" fill="#F8C77D"/>
<path d="M31.6494 36.2638C30.4247 35.2256 31.2768 33.2289 32.8814 33.3767L41.9374 34.2112C42.7816 34.289 43.4377 34.9934 43.3756 35.8357C43.1803 38.4836 42.3888 40.2262 40.6874 42.0288C40.1174 42.6326 39.1734 42.642 38.5426 42.1073L31.6494 36.2638Z" fill="#F8C77D"/>
<path d="M28.6438 33.7159C28.2681 33.3974 28.4544 32.9688 28.9487 33.0144L42.7703 34.2879C43.1172 34.3199 43.4258 34.5829 43.4206 34.8449C43.3495 38.4251 42.4142 40.426 40.0104 42.7053C39.8195 42.8864 39.4165 42.8481 39.1552 42.6266L28.6438 33.7159Z" fill="#F8C77D"/>
</g>
<defs>
<filter id="filter0_d_49_6175" x="8" y="3" width="41.5" height="52.5" filterUnits="userSpaceOnUse" color-interpolation-filters="sRGB">
<feFlood flood-opacity="0" result="BackgroundImageFix"/>
<feColorMatrix in="SourceAlpha" type="matrix" values="0 0 0 0 0 0 0 0 0 0 0 0 0 0 0 0 0 0 127 0" result="hardAlpha"/>
<feOffset dx="1" dy="2"/>
<feGaussianBlur stdDeviation="0.25"/>
<feComposite in2="hardAlpha" operator="out"/>
<feColorMatrix type="matrix" values="0 0 0 0 0.7 0 0 0 0 0.630285 0 0 0 0 0.525 0 0 0 0.25 0"/>
<feBlend mode="normal" in2="BackgroundImageFix" result="effect1_dropShadow_49_6175"/>
<feBlend mode="normal" in="SourceGraphic" in2="effect1_dropShadow_49_6175" result="shape"/>
</filter>
</defs>
</svg>
