<svg width="56" height="56" viewBox="0 0 56 56" fill="none" xmlns="http://www.w3.org/2000/svg">
<g filter="url(#filter0_di_49_6077)">
<path d="M43.4502 11C46.2998 14.6269 47.9999 19.1997 48 24.1699C48 35.9534 38.4475 45.5059 26.6641 45.5059C18.6335 45.5058 11.6406 41.0686 8 34.5127L43.4502 11Z" fill="#5BAD81" fill-opacity="0.87" shape-rendering="crispEdges"/>
</g>
<g filter="url(#filter1_i_49_6077)">
<path d="M41.8462 12.7324C44.2376 15.9045 45.6567 19.8513 45.6567 24.1299C45.6567 34.5966 37.1713 43.0811 26.7046 43.0811C19.707 43.081 13.5967 39.2882 10.314 33.6465L41.8462 12.7324Z" fill="#F78E89"/>
</g>
<g filter="url(#filter2_d_49_6077)">
<path fill-rule="evenodd" clip-rule="evenodd" d="M28.017 31.5893C28.6932 32.2961 29.4756 33.6717 29.8139 34.9145C29.9828 35.5355 30.0433 36.1323 29.9174 36.5981C29.8542 36.8319 29.7434 37.0347 29.5746 37.1899C29.4057 37.3453 29.1811 37.4497 28.8969 37.4936C28.5757 37.5432 28.3029 37.5106 28.0756 37.4077C27.8483 37.3047 27.6699 37.1337 27.5336 36.9165C27.2625 36.4841 27.1549 35.8623 27.1489 35.1948C27.1428 34.5253 27.2387 33.8011 27.3852 33.1587C27.5315 32.5171 27.729 31.9516 27.9252 31.601L27.9623 31.5327L28.017 31.5893ZM22.4975 30.4516C22.4999 31.4299 22.118 32.9658 21.5063 34.0991C21.2007 34.6653 20.8335 35.1385 20.4213 35.3891C20.2142 35.515 19.9935 35.5864 19.7641 35.5825C19.5347 35.5785 19.3 35.4995 19.0639 35.3354C18.7971 35.15 18.6225 34.9377 18.5287 34.7065C18.4352 34.4755 18.4232 34.229 18.474 33.978C18.5756 33.4776 18.9272 32.9514 19.3832 32.4634C19.8402 31.9744 20.4087 31.5171 20.9574 31.1528C21.5057 30.7889 22.0385 30.5147 22.4223 30.396L22.4965 30.3735L22.4975 30.4516ZM33.0004 28.3237C33.9786 28.3249 35.5129 28.7126 36.644 29.3286C37.2092 29.6365 37.6821 30.0061 37.9311 30.4194C38.0558 30.6267 38.1252 30.8467 38.1205 31.0757C38.1157 31.3052 38.0356 31.5402 37.8705 31.7759C37.6842 32.0416 37.472 32.2152 37.2406 32.3081C37.0091 32.4008 36.7621 32.4117 36.5112 32.3598C36.0113 32.2563 35.4866 31.9035 35.0004 31.4458C34.5131 30.9868 34.058 30.4159 33.6957 29.8657C33.3338 29.3159 33.062 28.7822 32.9447 28.3979L32.9223 28.3237H33.0004ZM37.4692 20.9477C38.0894 20.7768 38.6856 20.7142 39.1518 20.8384C39.3859 20.9008 39.5897 21.0108 39.7455 21.1792C39.9014 21.3476 40.0072 21.571 40.0522 21.855C40.1029 22.176 40.0703 22.4495 39.9682 22.6772C39.866 22.9047 39.6954 23.0832 39.4789 23.2202C39.0474 23.4928 38.4258 23.6045 37.7582 23.6128C37.0887 23.621 36.364 23.5257 35.7211 23.3813C35.0792 23.2371 34.5138 23.0421 34.1625 22.8471L34.0932 22.81L34.1498 22.7553C34.8543 22.0769 36.2274 21.2901 37.4692 20.9477Z" fill="#2C3A2C"/>
</g>
<defs>
<filter id="filter0_di_49_6077" x="8" y="10.7694" width="42.191" height="37.5041" filterUnits="userSpaceOnUse" color-interpolation-filters="sRGB">
<feFlood flood-opacity="0" result="BackgroundImageFix"/>
<feColorMatrix in="SourceAlpha" type="matrix" values="0 0 0 0 0 0 0 0 0 0 0 0 0 0 0 0 0 0 127 0" result="hardAlpha"/>
<feMorphology radius="0.23063" operator="dilate" in="SourceAlpha" result="effect1_dropShadow_49_6077"/>
<feOffset dx="1.72973" dy="2.3063"/>
<feGaussianBlur stdDeviation="0.115315"/>
<feComposite in2="hardAlpha" operator="out"/>
<feColorMatrix type="matrix" values="0 0 0 0 0.272705 0 0 0 0 0.4532 0 0 0 0 0.275616 0 0 0 0.2 0"/>
<feBlend mode="normal" in2="BackgroundImageFix" result="effect1_dropShadow_49_6077"/>
<feBlend mode="normal" in="SourceGraphic" in2="effect1_dropShadow_49_6077" result="shape"/>
<feColorMatrix in="SourceAlpha" type="matrix" values="0 0 0 0 0 0 0 0 0 0 0 0 0 0 0 0 0 0 127 0" result="hardAlpha"/>
<feOffset dy="-1.38378"/>
<feGaussianBlur stdDeviation="0.115315"/>
<feComposite in2="hardAlpha" operator="arithmetic" k2="-1" k3="1"/>
<feColorMatrix type="matrix" values="0 0 0 0 0.311011 0 0 0 0 0.454703 0 0 0 0 0.3776 0 0 0 0.25 0"/>
<feBlend mode="normal" in2="shape" result="effect2_innerShadow_49_6077"/>
</filter>
<filter id="filter1_i_49_6077" x="10.314" y="12.5018" width="35.3428" height="30.5793" filterUnits="userSpaceOnUse" color-interpolation-filters="sRGB">
<feFlood flood-opacity="0" result="BackgroundImageFix"/>
<feBlend mode="normal" in="SourceGraphic" in2="BackgroundImageFix" result="shape"/>
<feColorMatrix in="SourceAlpha" type="matrix" values="0 0 0 0 0 0 0 0 0 0 0 0 0 0 0 0 0 0 127 0" result="hardAlpha"/>
<feOffset dy="-1.38378"/>
<feGaussianBlur stdDeviation="0.115315"/>
<feComposite in2="hardAlpha" operator="arithmetic" k2="-1" k3="1"/>
<feColorMatrix type="matrix" values="0 0 0 0 0.94902 0 0 0 0 0.141176 0 0 0 0 0.141176 0 0 0 0.25 0"/>
<feBlend mode="normal" in2="shape" result="effect1_innerShadow_49_6077"/>
</filter>
<filter id="filter2_d_49_6077" x="18.2137" y="20.7732" width="22.0926" height="17.8963" filterUnits="userSpaceOnUse" color-interpolation-filters="sRGB">
<feFlood flood-opacity="0" result="BackgroundImageFix"/>
<feColorMatrix in="SourceAlpha" type="matrix" values="0 0 0 0 0 0 0 0 0 0 0 0 0 0 0 0 0 0 127 0" result="hardAlpha"/>
<feOffset dy="0.922521"/>
<feGaussianBlur stdDeviation="0.115315"/>
<feComposite in2="hardAlpha" operator="out"/>
<feColorMatrix type="matrix" values="0 0 0 0 0.950928 0 0 0 0 0.142082 0 0 0 0 0.142082 0 0 0 0.25 0"/>
<feBlend mode="normal" in2="BackgroundImageFix" result="effect1_dropShadow_49_6077"/>
<feBlend mode="normal" in="SourceGraphic" in2="effect1_dropShadow_49_6077" result="shape"/>
</filter>
</defs>
</svg>
