<svg width="56" height="56" viewBox="0 0 56 56" fill="none" xmlns="http://www.w3.org/2000/svg">
<g filter="url(#filter0_d_49_6117)">
<path d="M34.069 11.4241C33.6363 9.19963 34.2716 6.96596 35.9751 4.72221L36.5234 4L37.0811 4.58225C37.8294 5.36338 38.8564 6.67135 39.2179 7.30324C39.6968 8.14048 40.2025 9.44868 40.2852 10.0641C40.4535 11.3172 40.0909 12.8822 39.3273 14.1978C38.8991 14.9358 38.296 15.7421 38.222 15.6757C38.1937 15.6504 38.1977 15.3964 38.2308 15.1113C38.3761 13.8607 38.1444 11.6623 37.7217 10.2811C37.5127 9.59814 37.1761 8.78984 37.1252 8.84846C37.1114 8.86439 37.1726 9.1608 37.2612 9.5071C37.4577 10.2751 37.5965 12.1047 37.5414 13.1982C37.4999 14.0218 37.2375 15.8664 37.147 15.9705C37.1195 16.0022 36.7413 15.68 36.3067 15.2546C35.0165 13.9913 34.3445 12.8411 34.069 11.4241Z" fill="#6FB790"/>
<path d="M42.098 15.0383C43.3119 14.7937 44.5303 15.1505 45.7537 16.1088L46.1475 16.4172L45.8295 16.7315C45.403 17.1533 44.689 17.7322 44.3441 17.9361C43.887 18.2061 43.1731 18.4915 42.8373 18.5384C42.1535 18.6337 41.2998 18.4302 40.5824 18.0008C40.18 17.76 39.7403 17.4207 39.7766 17.379C39.7904 17.363 39.929 17.3651 40.0845 17.3837C40.7668 17.465 41.9663 17.3335 42.72 17.0948C43.0927 16.9768 43.5339 16.7869 43.5019 16.7583C43.4932 16.7505 43.3315 16.7851 43.1425 16.8351C42.7234 16.9461 41.7252 17.0252 41.1286 16.9946C40.6793 16.9716 39.673 16.8246 39.6162 16.7738C39.5989 16.7583 39.7749 16.5452 40.0072 16.3002C40.697 15.5731 41.3248 15.1941 42.098 15.0383Z" fill="#6FB790"/>
<ellipse cx="25.1922" cy="29.8003" rx="17.1922" ry="17.4649" fill="#352056" fill-opacity="0.85"/>
<g filter="url(#filter1_i_49_6117)">
<ellipse cx="25.2247" cy="29.7674" rx="15.2711" ry="15.5133" fill="#8E77B0"/>
</g>
<g filter="url(#filter2_d_49_6117)">
<path d="M21.8409 31.4168C22.2894 31.0446 22.953 31.4738 22.8059 32.0409L22.5092 33.1855C22.4437 33.4379 22.5473 33.7053 22.7659 33.8482L23.7593 34.4974C24.2469 34.8161 24.0522 35.5732 23.474 35.6065L22.2901 35.6747C22.0318 35.6896 21.8133 35.8695 21.748 36.1211L21.4497 37.2718C21.3028 37.8385 20.5188 37.8774 20.3087 37.3284L19.8911 36.2372C19.7966 35.9901 19.554 35.8323 19.2922 35.8473L18.1344 35.914C17.5544 35.9474 17.2647 35.2142 17.7115 34.8435L18.6297 34.0815C18.8277 33.9173 18.8985 33.6434 18.8057 33.4009L18.375 32.2756C18.1659 31.729 18.7707 31.237 19.2593 31.5564L20.2392 32.1968C20.4596 32.3408 20.7462 32.3252 20.9475 32.1582L21.8409 31.4168Z" fill="#47316B" fill-opacity="0.78" shape-rendering="crispEdges"/>
<path d="M22.0328 31.6504C22.257 31.4644 22.5884 31.6787 22.5151 31.9622L22.2186 33.1076C22.1207 33.4861 22.2765 33.887 22.6043 34.1012L23.597 34.7506C23.8408 34.91 23.7435 35.2879 23.4544 35.3045L22.2703 35.3732C21.883 35.3957 21.5552 35.6653 21.4573 36.0426L21.1589 37.1935C21.0853 37.4767 20.6937 37.4962 20.5887 37.2218L20.1713 36.1303C20.0295 35.7598 19.6655 35.5228 19.2728 35.5454L18.1153 35.6123C17.8253 35.629 17.6801 35.2622 17.9035 35.0768L18.8217 34.3148C19.1185 34.0684 19.2249 33.6574 19.0857 33.2938L18.6551 32.1694C18.5505 31.8961 18.8526 31.6501 19.0968 31.8096L20.0771 32.4503C20.4076 32.6661 20.8375 32.6425 21.1393 32.3923L22.0328 31.6504Z" stroke="#352056" stroke-opacity="0.85" stroke-width="0.602246" shape-rendering="crispEdges"/>
</g>
<ellipse cx="10.1089" cy="10.2392" rx="10.1089" ry="10.2392" transform="matrix(0.950887 0.309539 -0.300831 0.953677 28.1221 25.8311)" fill="#352056" fill-opacity="0.85"/>
<g filter="url(#filter3_i_49_6117)">
<ellipse cx="8.40783" cy="8.51616" rx="8.40783" ry="8.51616" transform="matrix(0.950887 0.309539 -0.300831 0.953677 29.23 28.0144)" fill="#8E77B0"/>
</g>
<g filter="url(#filter4_d_49_6117)">
<path d="M32.7803 40.4636C33.0966 40.3372 33.3888 40.6964 33.2063 40.9873L32.8372 41.5752C32.7557 41.705 32.766 41.8737 32.8628 41.993L33.3012 42.5337C33.5174 42.8004 33.2727 43.1907 32.9437 43.1041L32.2753 42.9282C32.1282 42.8895 31.9736 42.9511 31.8922 43.0808L31.5225 43.6698C31.34 43.9605 30.8965 43.8425 30.8759 43.4978L30.8344 42.8043C30.8252 42.6498 30.7187 42.5186 30.5709 42.4797L29.9075 42.3051C29.5781 42.2185 29.5487 41.7552 29.8646 41.6289L30.5071 41.3721C30.6479 41.3158 30.7369 41.174 30.7277 41.0205L30.6858 40.3198C30.6652 39.9755 31.0905 39.8072 31.3069 40.074L31.7432 40.6122C31.8403 40.7319 32.002 40.7746 32.1437 40.718L32.7803 40.4636Z" fill="#47316B" fill-opacity="0.78" shape-rendering="crispEdges"/>
<path d="M32.8452 40.6288C33.0032 40.5658 33.1493 40.7459 33.0581 40.8913L32.689 41.4789C32.5668 41.6736 32.5825 41.9264 32.7274 42.1054L33.1657 42.6463C33.2738 42.7796 33.1515 42.9749 32.987 42.9316L32.3182 42.7559C32.0978 42.6981 31.8664 42.7902 31.7443 42.9845L31.374 43.5737C31.2828 43.7188 31.0614 43.66 31.051 43.4879L31.0093 42.7944C30.9955 42.5627 30.8362 42.3659 30.6148 42.3074L29.9511 42.1331C29.7864 42.0898 29.7714 41.8575 29.9292 41.7943L30.572 41.5376C30.7832 41.4531 30.9165 41.2407 30.9028 41.0105L30.8608 40.3093C30.8509 40.1376 31.0633 40.0534 31.1715 40.1862L31.6075 40.7253C31.753 40.9047 31.996 40.9687 32.2083 40.884L32.8452 40.6288Z" stroke="#352056" stroke-opacity="0.85" stroke-width="0.353592" shape-rendering="crispEdges"/>
</g>
</g>
<defs>
<filter id="filter0_d_49_6117" x="8" y="4" width="39.6475" height="46.6862" filterUnits="userSpaceOnUse" color-interpolation-filters="sRGB">
<feFlood flood-opacity="0" result="BackgroundImageFix"/>
<feColorMatrix in="SourceAlpha" type="matrix" values="0 0 0 0 0 0 0 0 0 0 0 0 0 0 0 0 0 0 127 0" result="hardAlpha"/>
<feOffset dx="1" dy="1.20449"/>
<feGaussianBlur stdDeviation="0.25"/>
<feComposite in2="hardAlpha" operator="out"/>
<feColorMatrix type="matrix" values="0 0 0 0 0.258824 0 0 0 0 0.176471 0 0 0 0 0.392157 0 0 0 0.2 0"/>
<feBlend mode="normal" in2="BackgroundImageFix" result="effect1_dropShadow_49_6117"/>
<feBlend mode="normal" in="SourceGraphic" in2="effect1_dropShadow_49_6117" result="shape"/>
</filter>
<filter id="filter1_i_49_6117" x="9.95361" y="14.2542" width="30.7834" height="31.5084" filterUnits="userSpaceOnUse" color-interpolation-filters="sRGB">
<feFlood flood-opacity="0" result="BackgroundImageFix"/>
<feBlend mode="normal" in="SourceGraphic" in2="BackgroundImageFix" result="shape"/>
<feColorMatrix in="SourceAlpha" type="matrix" values="0 0 0 0 0 0 0 0 0 0 0 0 0 0 0 0 0 0 127 0" result="hardAlpha"/>
<feMorphology radius="0.602246" operator="erode" in="SourceAlpha" result="effect1_innerShadow_49_6117"/>
<feOffset dx="0.240898" dy="0.481797"/>
<feGaussianBlur stdDeviation="0.0602246"/>
<feComposite in2="hardAlpha" operator="arithmetic" k2="-1" k3="1"/>
<feColorMatrix type="matrix" values="0 0 0 0 0.764762 0 0 0 0 0.703643 0 0 0 0 0.855112 0 0 0 0.3 0"/>
<feBlend mode="normal" in2="shape" result="effect1_innerShadow_49_6117"/>
</filter>
<filter id="filter2_d_49_6117" x="17.4334" y="31.2773" width="6.66293" height="6.74302" filterUnits="userSpaceOnUse" color-interpolation-filters="sRGB">
<feFlood flood-opacity="0" result="BackgroundImageFix"/>
<feColorMatrix in="SourceAlpha" type="matrix" values="0 0 0 0 0 0 0 0 0 0 0 0 0 0 0 0 0 0 127 0" result="hardAlpha"/>
<feOffset dy="0.240898"/>
<feGaussianBlur stdDeviation="0.0301123"/>
<feComposite in2="hardAlpha" operator="out"/>
<feColorMatrix type="matrix" values="0 0 0 0 0.207843 0 0 0 0 0.12549 0 0 0 0 0.337255 0 0 0 0.25 0"/>
<feBlend mode="normal" in2="BackgroundImageFix" result="effect1_dropShadow_49_6117"/>
<feBlend mode="normal" in="SourceGraphic" in2="effect1_dropShadow_49_6117" result="shape"/>
</filter>
<filter id="filter3_i_49_6117" x="26.2651" y="30.2078" width="16.9278" height="17.3264" filterUnits="userSpaceOnUse" color-interpolation-filters="sRGB">
<feFlood flood-opacity="0" result="BackgroundImageFix"/>
<feBlend mode="normal" in="SourceGraphic" in2="BackgroundImageFix" result="shape"/>
<feColorMatrix in="SourceAlpha" type="matrix" values="0 0 0 0 0 0 0 0 0 0 0 0 0 0 0 0 0 0 127 0" result="hardAlpha"/>
<feMorphology radius="0.331086" operator="erode" in="SourceAlpha" result="effect1_innerShadow_49_6117"/>
<feOffset dx="0.132435" dy="0.264869"/>
<feGaussianBlur stdDeviation="0.0331086"/>
<feComposite in2="hardAlpha" operator="arithmetic" k2="-1" k3="1"/>
<feColorMatrix type="matrix" values="0 0 0 0 0.764762 0 0 0 0 0.703643 0 0 0 0 0.855112 0 0 0 0.3 0"/>
<feBlend mode="normal" in2="shape" result="effect1_innerShadow_49_6117"/>
</filter>
<filter id="filter4_d_49_6117" x="29.6082" y="39.9426" width="3.80998" height="4.0684" filterUnits="userSpaceOnUse" color-interpolation-filters="sRGB">
<feFlood flood-opacity="0" result="BackgroundImageFix"/>
<feColorMatrix in="SourceAlpha" type="matrix" values="0 0 0 0 0 0 0 0 0 0 0 0 0 0 0 0 0 0 127 0" result="hardAlpha"/>
<feOffset dy="0.141437"/>
<feGaussianBlur stdDeviation="0.0176796"/>
<feComposite in2="hardAlpha" operator="out"/>
<feColorMatrix type="matrix" values="0 0 0 0 0.207843 0 0 0 0 0.12549 0 0 0 0 0.337255 0 0 0 0.25 0"/>
<feBlend mode="normal" in2="BackgroundImageFix" result="effect1_dropShadow_49_6117"/>
<feBlend mode="normal" in="SourceGraphic" in2="effect1_dropShadow_49_6117" result="shape"/>
</filter>
</defs>
</svg>
