<svg width="36" height="36" viewBox="0 0 36 36" fill="none" xmlns="http://www.w3.org/2000/svg">
<g clip-path="url(#clip0_56_6358)">
<path d="M18.4748 4.60581C18.3261 4.5366 18.164 4.50073 18 4.50073C17.836 4.50073 17.674 4.5366 17.5253 4.60581L0.650274 12.4808C0.45156 12.5736 0.284286 12.7224 0.169024 12.9089C0.0537629 13.0955 -0.00445977 13.3117 0.00151662 13.5309C0.00749301 13.7501 0.0774079 13.9628 0.202663 14.1428C0.327918 14.3228 0.503051 14.4623 0.706524 14.5441L17.5815 21.2941C17.8501 21.4017 18.1499 21.4017 18.4185 21.2941L31.5 16.0651V29.2501C30.9033 29.2501 30.331 29.4871 29.909 29.9091C29.4871 30.331 29.25 30.9033 29.25 31.5001V36.0001H36V31.5001C36 30.9033 35.763 30.331 35.341 29.9091C34.9191 29.4871 34.3468 29.2501 33.75 29.2501V15.1628L35.2935 14.5441C35.497 14.4623 35.6721 14.3228 35.7974 14.1428C35.9226 13.9628 35.9926 13.7501 35.9985 13.5309C36.0045 13.3117 35.9463 13.0955 35.831 12.9089C35.7158 12.7224 35.5485 12.5736 35.3498 12.4808L18.4748 4.60581ZM18 19.0351L3.95552 13.4213L18 6.86706L32.0445 13.4213L18 19.0351Z" fill="#43E9BF"/>
<path d="M9.39603 20.322C9.25117 20.2674 9.0966 20.2433 8.942 20.2512C8.7874 20.2591 8.6361 20.2989 8.49755 20.3679C8.35901 20.437 8.23621 20.5339 8.13684 20.6526C8.03746 20.7713 7.96366 20.9092 7.92003 21.0577L6.79503 24.8827C6.71623 25.1513 6.74034 25.4395 6.86266 25.6912C6.98498 25.9429 7.19671 26.14 7.45653 26.244L17.5815 30.294C17.8501 30.4016 18.1499 30.4016 18.4185 30.294L28.5435 26.244C28.8034 26.14 29.0151 25.9429 29.1374 25.6912C29.2597 25.4395 29.2838 25.1513 29.205 24.8827L28.08 21.0577C28.0364 20.9092 27.9626 20.7713 27.8632 20.6526C27.7639 20.5339 27.6411 20.437 27.5025 20.3679C27.364 20.2989 27.2127 20.2591 27.0581 20.2512C26.9035 20.2433 26.7489 20.2674 26.604 20.322L18 23.5485L9.39603 20.322ZM9.24303 24.5362L9.73803 22.8532L17.604 25.803C17.8593 25.899 18.1408 25.899 18.396 25.803L26.262 22.8532L26.757 24.5362L18 28.035L9.24303 24.5362Z" fill="#43E9BF"/>
</g>
<defs>
<clipPath id="clip0_56_6358">
<rect width="36" height="36" fill="white"/>
</clipPath>
</defs>
</svg>
