<svg width="32" height="38" viewBox="0 0 32 38" fill="none" xmlns="http://www.w3.org/2000/svg">
<path fill-rule="evenodd" clip-rule="evenodd" d="M12.2549 0.166303C11.5837 0.466897 11.3386 1.00915 11.3386 2.19447C11.3386 3.68472 11.7004 4.19644 12.8981 4.40044L13.4314 4.49131L13.4687 5.26583L13.506 6.04035L12.3436 6.31218C10.2072 6.81194 8.01352 7.84799 6.26031 9.18527L5.53099 9.74153L4.86634 9.06653C4.15184 8.34088 4.14676 8.2747 4.76572 7.75241C5.22721 7.36299 5.24685 6.80137 4.80922 6.51376C4.60759 6.38128 4.39571 6.34196 4.20703 6.40216C3.73094 6.5536 1.18671 9.23057 1.18671 9.5799C1.18671 9.84995 1.65188 10.2757 1.9469 10.2757C2.08596 10.2757 2.36333 10.1038 2.56343 9.89386C2.76341 9.68388 2.99575 9.51208 3.0795 9.51208C3.30143 9.51208 4.35891 10.5393 4.35891 10.7549C4.35891 10.8557 4.09293 11.2329 3.76772 11.5932C1.40265 14.2139 0.022374 17.9506 0.000422411 21.7929C-0.0150579 24.5005 0.392882 26.3251 1.56558 28.7924C2.56787 30.901 3.8964 32.6552 5.56181 34.069C8.77474 36.7965 12.5503 38.1535 16.4602 37.9862C18.9792 37.8784 20.976 37.3697 23.0798 36.2998C28.2967 33.6469 31.5284 28.7399 31.9678 22.8044C32.2387 19.1452 30.7805 14.7379 28.331 11.8118C27.9176 11.3181 27.5794 10.8371 27.5794 10.7432C27.5794 10.6492 27.8664 10.2998 28.2171 9.96679L28.8549 9.36114L29.3595 9.8184C29.637 10.0699 29.9768 10.2757 30.1146 10.2757C30.4511 10.2757 30.7973 9.72982 30.6854 9.37577C30.5958 9.09274 28.3921 6.83536 27.8714 6.49302C27.4539 6.21877 26.999 6.37378 26.8348 6.84605C26.7093 7.20697 26.7372 7.27709 27.2109 7.79251L27.7225 8.34916L27.034 9.07938L26.3455 9.80949L25.9791 9.4669C25.3604 8.88849 23.9509 7.99243 22.8519 7.47879C21.9373 7.05132 21.2558 6.81678 19.0192 6.15998L18.5162 6.01235L18.5291 5.24878L18.5421 4.4852L19.0955 4.41559C20.212 4.27535 20.7276 3.5852 20.7272 2.23138C20.7271 1.31471 20.471 0.696359 19.9254 0.294591C19.5863 0.0449015 19.3856 0.0297548 16.1188 0.00570216C13.3271 -0.0147871 12.591 0.0157512 12.2549 0.166303ZM26.6734 18.7386C25.419 14.4443 21.7283 11.3164 17.2996 10.7942C14.9462 10.5168 13.1421 10.8238 11.0205 11.8629C8.84301 12.9293 7.07062 14.6872 6.01301 16.8297C5.11845 18.6415 4.82991 19.871 4.81823 21.9202C4.80719 23.8541 5.06973 25.0484 5.89374 26.8125C7.33519 29.8985 10.111 32.111 13.5869 32.944C15.0451 33.2935 17.4898 33.228 18.951 32.8002C21.5493 32.0396 23.7365 30.4421 25.2236 28.2189C27.1581 25.327 27.6529 22.0917 26.6734 18.7386ZM15.4933 12.5766C15.2917 12.6944 15.2713 12.9849 15.2713 15.7384C15.2713 17.406 15.2371 18.9415 15.1955 19.1504C15.1417 19.4203 14.994 19.5906 14.6858 19.738C14.0241 20.0545 13.4948 20.9806 13.4948 21.8219C13.4948 23.4933 14.502 24.4806 16.1025 24.3784C17.633 24.2806 18.5158 23.2933 18.4201 21.7864C18.3585 20.8144 17.9173 20.0731 17.1745 19.6929L16.667 19.4333V16.1362C16.667 13.3084 16.6386 12.8106 16.4677 12.6391C16.2412 12.412 15.8212 12.385 15.4933 12.5766ZM18.2605 7.53658C20.5143 7.90323 22.5376 8.74939 24.4578 10.1285C27.3599 12.2128 29.4864 15.5052 30.2653 19.1204C30.5246 20.3229 30.4863 23.8608 30.2008 25.0823C29.2067 29.337 26.3439 33.0245 22.5308 34.9617C19.1973 36.6553 14.9876 36.9874 11.4646 35.8348C8.94452 35.0103 6.70125 33.4611 4.86594 31.2777C1.12338 26.8253 0.386552 20.4691 3.01098 15.2757C4.71331 11.9066 8.08141 9.08422 11.7231 7.97475C13.7193 7.36669 16.1954 7.20074 18.2605 7.53658ZM4.00551 17.7205C5.41041 13.5647 9.22507 10.2837 13.6285 9.4431C15.0931 9.16363 17.8113 9.2839 19.3036 9.69432C23.6031 10.8768 26.9309 14.2381 28.2268 18.7072C28.618 20.056 28.7025 22.8115 28.3997 24.3439C28.1633 25.5405 27.5361 27.2521 26.9795 28.2197C25.6631 30.5075 23.6809 32.3112 21.1715 33.5044C16.6142 35.6713 10.985 34.7054 7.17062 31.1018C6.52882 30.4955 5.07531 28.508 4.64224 27.6446C3.12669 24.6233 2.89461 21.0063 4.00551 17.7205ZM17.0477 5.94872V5.18515V4.42157H15.9692H14.8906V5.18515V5.94872H15.9692H17.0477ZM19.2653 1.78087C19.3012 1.93829 19.3067 2.18175 19.2774 2.32174C19.2482 2.46173 19.2199 2.64791 19.2146 2.73534C19.207 2.85815 18.468 2.89442 15.9692 2.89442H12.7335V2.19447V1.49453H15.9667H19.2L19.2653 1.78087ZM16.8625 22.483C17.1206 21.9824 17.0943 21.6692 16.7622 21.2909C16.0725 20.5048 14.8906 20.9212 14.8906 21.9503C14.8906 23.0089 16.3833 23.4122 16.8625 22.483Z" fill="#E69E17"/>
</svg>
