<svg width="155" height="107" viewBox="0 0 155 107" fill="none" xmlns="http://www.w3.org/2000/svg">
<path d="M71.3849 13.4283C68.932 11.5525 67.579 8.68988 67.325 4.83947L67.2433 3.6001L68.3464 3.6844C69.8264 3.79737 72.0702 4.19326 73.0144 4.50781C74.2655 4.92463 75.9686 5.79789 76.6088 6.35069C77.9123 7.47648 78.9459 9.40661 79.3389 11.449C79.5594 12.5944 79.6601 13.9698 79.5235 13.9698C79.4714 13.9698 79.2467 13.7068 79.0242 13.3853C78.0484 11.9751 75.8276 9.94205 74.1448 8.91829C73.3127 8.412 72.2354 7.89452 72.2354 8.00097C72.2354 8.02989 72.5658 8.27664 72.9697 8.54922C73.8654 9.15371 75.6577 10.8952 76.5856 12.0623C77.2844 12.9415 78.6739 15.0654 78.6739 15.2546C78.6739 15.3122 77.9913 15.3292 77.1571 15.2924C74.6805 15.183 72.9472 14.6233 71.3849 13.4283Z" fill="#6FB790"/>
<path d="M82.9711 9.77163C84.0101 8.41094 85.5955 7.66033 87.728 7.51946L88.4145 7.47412L88.3678 8.08605C88.3052 8.90707 88.0859 10.1518 87.9117 10.6756C87.6809 11.3696 87.1972 12.3144 86.8911 12.6696C86.2675 13.3927 85.1985 13.9661 84.0674 14.1841C83.433 14.3064 82.6712 14.3623 82.6712 14.2865C82.6712 14.2576 82.8169 14.1329 82.995 14.0095C83.776 13.4682 84.902 12.2362 85.469 11.3027C85.7494 10.8411 86.036 10.2434 85.9771 10.2434C85.961 10.2434 85.8244 10.4268 85.6734 10.6508C85.3386 11.1477 84.3741 12.142 83.7277 12.6567C83.2408 13.0444 82.0644 13.8152 81.9597 13.8152C81.9278 13.8152 81.9184 13.4365 81.9387 12.9738C81.9993 11.5999 82.3093 10.6383 82.9711 9.77163Z" fill="#6FB790"/>
<g filter="url(#filter0_d_78_6513)">
<circle cx="77.7838" cy="39.8165" r="23.7838" fill="#5BAD81" fill-opacity="0.87" shape-rendering="crispEdges"/>
</g>
<circle cx="77.8289" cy="39.7711" r="21.1261" fill="#A3E09F" fill-opacity="0.87"/>
<circle cx="77.8289" cy="39.7712" r="3.64865" fill="#E8EFAD" fill-opacity="0.87"/>
<path d="M69.3075 39.9979C67.9116 38.9314 62.7226 37.2692 62.7541 40.0886C62.7819 42.5691 67.5531 41.2535 69.3075 39.9979Z" fill="#578858" stroke="#467446" stroke-width="0.0900901"/>
<path d="M86.298 39.5138C87.694 40.5803 92.883 42.2425 92.8514 39.4231C92.8236 36.9426 88.0524 38.2582 86.298 39.5138Z" fill="#578858" stroke="#467446" stroke-width="0.0900901"/>
<path d="M77.5887 31.2601C78.6598 29.8676 80.3391 24.6841 77.5196 24.7064C75.039 24.726 76.3388 29.5015 77.5887 31.2601Z" fill="#578858" stroke="#467446" stroke-width="0.0900901"/>
<path d="M78.0168 48.2522C76.9457 49.6446 75.2664 54.8281 78.0859 54.8058C80.5665 54.7862 79.2667 50.0107 78.0168 48.2522Z" fill="#578858" stroke="#467446" stroke-width="0.0900901"/>
<path d="M84.0834 45.4812C84.3471 47.218 86.9263 52.0176 88.8616 49.9671C90.5643 48.163 86.2177 45.7961 84.0834 45.4812Z" fill="#578858" stroke="#467446" stroke-width="0.0900901"/>
<path d="M71.5221 34.0301C71.2584 32.2932 68.6792 27.4936 66.7439 29.5441C65.0412 31.3482 69.3878 33.7151 71.5221 34.0301Z" fill="#578858" stroke="#467446" stroke-width="0.0900901"/>
<path d="M72.1012 46.0581C70.3654 46.3285 65.5757 48.926 67.6336 50.8534C69.4441 52.5492 71.7944 48.1936 72.1012 46.0581Z" fill="#578858" stroke="#467446" stroke-width="0.0900901"/>
<path d="M83.5043 33.4531C85.2401 33.1827 90.0298 30.5852 87.9719 28.6578C86.1614 26.962 83.8111 31.3176 83.5043 33.4531Z" fill="#578858" stroke="#467446" stroke-width="0.0900901"/>
<path d="M8.02554 90.25C7.01434 90.25 6.07994 90.0836 5.22234 89.7508C4.36474 89.4052 3.62234 88.9252 2.99514 88.3108C2.36794 87.6964 1.87514 86.9732 1.51674 86.1412C1.17114 85.3092 0.998339 84.4004 0.998339 83.4148C0.998339 82.4292 1.17114 81.5204 1.51674 80.6884C1.87514 79.8564 2.36794 79.1332 2.99514 78.5188C3.63514 77.9044 4.38394 77.4308 5.24154 77.098C6.09914 76.7524 7.03354 76.5796 8.04474 76.5796C9.01754 76.5796 9.93274 76.746 10.7903 77.0788C11.6479 77.3988 12.3711 77.8852 12.9599 78.538L12.0575 79.4404C11.5071 78.8772 10.8991 78.474 10.2335 78.2308C9.56794 77.9748 8.85114 77.8468 8.08314 77.8468C7.27674 77.8468 6.52794 77.9876 5.83674 78.2692C5.14554 78.538 4.54394 78.9284 4.03194 79.4404C3.51994 79.9396 3.11674 80.5284 2.82234 81.2068C2.54074 81.8724 2.39994 82.6084 2.39994 83.4148C2.39994 84.2212 2.54074 84.9636 2.82234 85.642C3.11674 86.3076 3.51994 86.8964 4.03194 87.4084C4.54394 87.9076 5.14554 88.298 5.83674 88.5796C6.52794 88.8484 7.27674 88.9828 8.08314 88.9828C8.85114 88.9828 9.56794 88.8548 10.2335 88.5988C10.8991 88.3428 11.5071 87.9332 12.0575 87.37L12.9599 88.2724C12.3711 88.9252 11.6479 89.418 10.7903 89.7508C9.93274 90.0836 9.01114 90.25 8.02554 90.25ZM13.1168 90.1348L19.2608 76.6948H20.6624L26.8064 90.1348H25.3088L19.664 77.5204H20.24L14.5952 90.1348H13.1168ZM15.536 86.5444L15.9584 85.3924H23.7728L24.1952 86.5444H15.536ZM28.6457 90.1348V76.6948H33.6761C34.8153 76.6948 35.7945 76.8804 36.6137 77.2516C37.4329 77.61 38.0601 78.1348 38.4953 78.826C38.9433 79.5044 39.1673 80.33 39.1673 81.3028C39.1673 82.25 38.9433 83.0692 38.4953 83.7604C38.0601 84.4388 37.4329 84.9636 36.6137 85.3348C35.7945 85.6932 34.8153 85.8724 33.6761 85.8724H29.4329L30.0665 85.2196V90.1348H28.6457ZM37.8233 90.1348L34.3673 85.258H35.9033L39.3785 90.1348H37.8233ZM30.0665 85.3348L29.4329 84.6628H33.6377C34.9817 84.6628 35.9993 84.3684 36.6905 83.7796C37.3945 83.1908 37.7465 82.3652 37.7465 81.3028C37.7465 80.2276 37.3945 79.3956 36.6905 78.8068C35.9993 78.218 34.9817 77.9236 33.6377 77.9236H29.4329L30.0665 77.2516V85.3348ZM43.4039 82.7044H50.5079V83.914H43.4039V82.7044ZM43.5575 88.906H51.6407V90.1348H42.1367V76.6948H51.3527V77.9236H43.5575V88.906ZM54.5965 90.1348V76.6948H55.7677L65.0413 88.3684H64.4269V76.6948H65.8285V90.1348H64.6573L55.4029 78.4612H56.0173V90.1348H54.5965ZM73.877 90.1348V76.6948H76.4498L82.1714 86.1796H80.8082L86.4338 76.6948H88.9874L89.0258 90.1348H86.1074L86.0882 81.1684H86.6258L82.133 88.714H80.7314L76.1426 81.1684H76.7954V90.1348H73.877ZM91.8305 90.1348V76.6948H94.9409V90.1348H91.8305ZM97.7465 90.1348V76.6948H103.852C105.311 76.6948 106.598 76.9764 107.711 77.5396C108.825 78.09 109.695 78.8644 110.323 79.8628C110.95 80.8612 111.263 82.0452 111.263 83.4148C111.263 84.7716 110.95 85.9556 110.323 86.9668C109.695 87.9652 108.825 88.746 107.711 89.3092C106.598 89.8596 105.311 90.1348 103.852 90.1348H97.7465ZM100.857 87.5812H103.699C104.595 87.5812 105.369 87.4148 106.022 87.082C106.687 86.7364 107.199 86.25 107.558 85.6228C107.929 84.9956 108.115 84.2596 108.115 83.4148C108.115 82.5572 107.929 81.8212 107.558 81.2068C107.199 80.5796 106.687 80.0996 106.022 79.7668C105.369 79.4212 104.595 79.2484 103.699 79.2484H100.857V87.5812ZM116.086 82.1092H122.556V84.5284H116.086V82.1092ZM116.316 87.6388H123.631V90.1348H113.225V76.6948H123.382V79.1908H116.316V87.6388ZM125.722 90.1348V76.6948H128.295L136.225 86.3716H134.977V76.6948H138.049V90.1348H135.495L127.546 80.458H128.794V90.1348H125.722ZM139.078 90.1348L145.069 76.6948H148.141L154.15 90.1348H150.886L145.971 78.2692H147.2L142.265 90.1348H139.078ZM142.073 87.2548L142.899 84.8932H149.811L150.656 87.2548H142.073Z" fill="#32506D"/>
<path d="M37.0944 103.978V97.2575H37.68L42.3168 103.094H42.0096V97.2575H42.7104V103.978H42.1248L37.4976 98.1407H37.8048V103.978H37.0944ZM48.091 104.035C47.2334 104.035 46.5582 103.789 46.0654 103.296C45.5726 102.803 45.3262 102.074 45.3262 101.107V97.2575H46.0366V101.078C46.0366 101.872 46.2158 102.458 46.5742 102.835C46.9326 103.213 47.4382 103.402 48.091 103.402C48.7502 103.402 49.259 103.213 49.6174 102.835C49.9758 102.458 50.155 101.872 50.155 101.078V97.2575H50.8462V101.107C50.8462 102.074 50.5998 102.803 50.107 103.296C49.6206 103.789 48.9486 104.035 48.091 104.035ZM54.6413 103.978V97.8719H52.2797V97.2575H57.7133V97.8719H55.3517V103.978H54.6413ZM59.3282 103.978V97.2575H61.8434C62.413 97.2575 62.9026 97.3503 63.3122 97.5359C63.7218 97.7151 64.0354 97.9775 64.253 98.3231C64.477 98.6623 64.589 99.0751 64.589 99.5615C64.589 100.035 64.477 100.445 64.253 100.79C64.0354 101.13 63.7218 101.392 63.3122 101.578C62.9026 101.757 62.413 101.846 61.8434 101.846H59.7218L60.0386 101.52V103.978H59.3282ZM63.917 103.978L62.189 101.539H62.957L64.6946 103.978H63.917ZM60.0386 101.578L59.7218 101.242H61.8242C62.4962 101.242 63.005 101.094 63.3506 100.8C63.7026 100.506 63.8786 100.093 63.8786 99.5615C63.8786 99.0239 63.7026 98.6079 63.3506 98.3135C63.005 98.0191 62.4962 97.8719 61.8242 97.8719H59.7218L60.0386 97.5359V101.578ZM66.7457 103.978V97.2575H67.4561V103.978H66.7457ZM73.0409 104.035C72.5353 104.035 72.0681 103.952 71.6393 103.786C71.2105 103.613 70.8393 103.373 70.5257 103.066C70.2121 102.758 69.9657 102.397 69.7865 101.981C69.6137 101.565 69.5273 101.11 69.5273 100.618C69.5273 100.125 69.6137 99.6703 69.7865 99.2543C69.9657 98.8383 70.2121 98.4767 70.5257 98.1695C70.8457 97.8623 71.2201 97.6255 71.6489 97.4591C72.0777 97.2863 72.5449 97.1999 73.0505 97.1999C73.5369 97.1999 73.9945 97.2831 74.4233 97.4495C74.8521 97.6095 75.2137 97.8527 75.5081 98.1791L75.0569 98.6303C74.7817 98.3487 74.4777 98.1471 74.1449 98.0255C73.8121 97.8975 73.4537 97.8335 73.0697 97.8335C72.6665 97.8335 72.2921 97.9039 71.9465 98.0447C71.6009 98.1791 71.3001 98.3743 71.0441 98.6303C70.7881 98.8799 70.5865 99.1743 70.4393 99.5135C70.2985 99.8463 70.2281 100.214 70.2281 100.618C70.2281 101.021 70.2985 101.392 70.4393 101.731C70.5865 102.064 70.7881 102.358 71.0441 102.614C71.3001 102.864 71.6009 103.059 71.9465 103.2C72.2921 103.334 72.6665 103.402 73.0697 103.402C73.4537 103.402 73.8121 103.338 74.1449 103.21C74.4777 103.082 74.7817 102.877 75.0569 102.595L75.5081 103.046C75.2137 103.373 74.8521 103.619 74.4233 103.786C73.9945 103.952 73.5337 104.035 73.0409 104.035ZM77.5025 103.978V97.2575H78.2129V103.978H77.5025ZM83.817 104.035C83.3114 104.035 82.841 103.952 82.4058 103.786C81.977 103.613 81.6026 103.373 81.2826 103.066C80.969 102.752 80.7226 102.39 80.5434 101.981C80.3706 101.565 80.2842 101.11 80.2842 100.618C80.2842 100.125 80.3706 99.6735 80.5434 99.2639C80.7226 98.8479 80.969 98.4863 81.2826 98.1791C81.6026 97.8655 81.977 97.6255 82.4058 97.4591C82.8346 97.2863 83.305 97.1999 83.817 97.1999C84.3226 97.1999 84.7898 97.2863 85.2186 97.4591C85.6474 97.6255 86.0186 97.8623 86.3322 98.1695C86.6522 98.4767 86.8986 98.8383 87.0714 99.2543C87.2506 99.6703 87.3402 100.125 87.3402 100.618C87.3402 101.11 87.2506 101.565 87.0714 101.981C86.8986 102.397 86.6522 102.758 86.3322 103.066C86.0186 103.373 85.6474 103.613 85.2186 103.786C84.7898 103.952 84.3226 104.035 83.817 104.035ZM83.817 103.402C84.2202 103.402 84.5914 103.334 84.9306 103.2C85.2762 103.059 85.5738 102.864 85.8234 102.614C86.0794 102.358 86.2778 102.064 86.4186 101.731C86.5594 101.392 86.6298 101.021 86.6298 100.618C86.6298 100.214 86.5594 99.8463 86.4186 99.5135C86.2778 99.1743 86.0794 98.8799 85.8234 98.6303C85.5738 98.3743 85.2762 98.1791 84.9306 98.0447C84.5914 97.9039 84.2202 97.8335 83.817 97.8335C83.4138 97.8335 83.0394 97.9039 82.6938 98.0447C82.3482 98.1791 82.0474 98.3743 81.7914 98.6303C81.5418 98.8799 81.3434 99.1743 81.1962 99.5135C81.0554 99.8463 80.985 100.214 80.985 100.618C80.985 101.014 81.0554 101.382 81.1962 101.722C81.3434 102.061 81.5418 102.358 81.7914 102.614C82.0474 102.864 82.3482 103.059 82.6938 103.2C83.0394 103.334 83.4138 103.402 83.817 103.402ZM89.4125 103.978V97.2575H89.9981L94.6349 103.094H94.3277V97.2575H95.0285V103.978H94.4429L89.8157 98.1407H90.1229V103.978H89.4125ZM97.7019 103.978V97.2575H98.4123V103.978H97.7019ZM102.932 104.035C102.432 104.035 101.952 103.955 101.492 103.795C101.037 103.629 100.685 103.418 100.436 103.162L100.714 102.614C100.951 102.845 101.268 103.04 101.664 103.2C102.068 103.354 102.49 103.43 102.932 103.43C103.354 103.43 103.696 103.379 103.959 103.277C104.228 103.168 104.423 103.024 104.544 102.845C104.672 102.666 104.736 102.467 104.736 102.25C104.736 101.987 104.66 101.776 104.506 101.616C104.359 101.456 104.164 101.331 103.92 101.242C103.677 101.146 103.408 101.062 103.114 100.992C102.82 100.922 102.525 100.848 102.231 100.771C101.936 100.688 101.664 100.579 101.415 100.445C101.172 100.31 100.973 100.134 100.82 99.9167C100.672 99.6927 100.599 99.4015 100.599 99.0431C100.599 98.7103 100.685 98.4063 100.858 98.1311C101.037 97.8495 101.309 97.6255 101.674 97.4591C102.039 97.2863 102.506 97.1999 103.076 97.1999C103.453 97.1999 103.828 97.2543 104.199 97.3631C104.57 97.4655 104.89 97.6095 105.159 97.7951L104.919 98.3615C104.631 98.1695 104.324 98.0287 103.997 97.9391C103.677 97.8495 103.367 97.8047 103.066 97.8047C102.663 97.8047 102.33 97.8591 102.068 97.9679C101.805 98.0767 101.61 98.2239 101.482 98.4095C101.36 98.5887 101.3 98.7935 101.3 99.0239C101.3 99.2863 101.373 99.4975 101.52 99.6575C101.674 99.8175 101.872 99.9423 102.116 100.032C102.365 100.122 102.637 100.202 102.932 100.272C103.226 100.342 103.517 100.419 103.805 100.502C104.1 100.586 104.368 100.694 104.612 100.829C104.861 100.957 105.06 101.13 105.207 101.347C105.36 101.565 105.437 101.85 105.437 102.202C105.437 102.528 105.348 102.832 105.168 103.114C104.989 103.389 104.714 103.613 104.343 103.786C103.978 103.952 103.508 104.035 102.932 104.035ZM108.677 103.978V97.8719H106.315V97.2575H111.749V97.8719H109.387V103.978H108.677ZM111.951 103.978L115.023 97.2575H115.724L118.796 103.978H118.047L115.225 97.6703H115.513L112.69 103.978H111.951ZM113.161 102.182L113.372 101.606H117.279L117.49 102.182H113.161Z" fill="#32506D"/>
<defs>
<filter id="filter0_d_78_6513" x="54" y="16.0327" width="49.2793" height="49.7295" filterUnits="userSpaceOnUse" color-interpolation-filters="sRGB">
<feFlood flood-opacity="0" result="BackgroundImageFix"/>
<feColorMatrix in="SourceAlpha" type="matrix" values="0 0 0 0 0 0 0 0 0 0 0 0 0 0 0 0 0 0 127 0" result="hardAlpha"/>
<feMorphology radius="0.18018" operator="dilate" in="SourceAlpha" result="effect1_dropShadow_78_6513"/>
<feOffset dx="1.35135" dy="1.8018"/>
<feGaussianBlur stdDeviation="0.0900901"/>
<feComposite in2="hardAlpha" operator="out"/>
<feColorMatrix type="matrix" values="0 0 0 0 0.272705 0 0 0 0 0.4532 0 0 0 0 0.275616 0 0 0 0.2 0"/>
<feBlend mode="normal" in2="BackgroundImageFix" result="effect1_dropShadow_78_6513"/>
<feBlend mode="normal" in="SourceGraphic" in2="effect1_dropShadow_78_6513" result="shape"/>
</filter>
</defs>
</svg>
