<svg width="170" height="62" viewBox="0 0 170 62" fill="none" xmlns="http://www.w3.org/2000/svg">
<path d="M72.032 28.1439C70.768 28.1439 69.6 27.9359 68.528 27.5199C67.456 27.0879 66.528 26.4879 65.744 25.7199C64.96 24.9519 64.344 24.0479 63.896 23.0079C63.464 21.9679 63.248 20.8319 63.248 19.5999C63.248 18.3679 63.464 17.2319 63.896 16.1919C64.344 15.1519 64.96 14.2479 65.744 13.4799C66.544 12.7119 67.48 12.1199 68.552 11.7039C69.624 11.2719 70.792 11.0559 72.056 11.0559C73.272 11.0559 74.416 11.2639 75.488 11.6799C76.56 12.0799 77.464 12.6879 78.2 13.5039L77.072 14.6319C76.384 13.9279 75.624 13.4239 74.792 13.1199C73.96 12.7999 73.064 12.6399 72.104 12.6399C71.096 12.6399 70.16 12.8159 69.296 13.1679C68.432 13.5039 67.68 13.9919 67.04 14.6319C66.4 15.2559 65.896 15.9919 65.528 16.8399C65.176 17.6719 65 18.5919 65 19.5999C65 20.6079 65.176 21.5359 65.528 22.3839C65.896 23.2159 66.4 23.9519 67.04 24.5919C67.68 25.2159 68.432 25.7039 69.296 26.0559C70.16 26.3919 71.096 26.5599 72.104 26.5599C73.064 26.5599 73.96 26.3999 74.792 26.0799C75.624 25.7599 76.384 25.2479 77.072 24.5439L78.2 25.6719C77.464 26.4879 76.56 27.1039 75.488 27.5199C74.416 27.9359 73.264 28.1439 72.032 28.1439ZM78.3961 27.9999L86.0761 11.1999H87.8281L95.5081 27.9999H93.6361L86.5801 12.2319H87.3001L80.2441 27.9999H78.3961ZM81.4201 23.5119L81.9481 22.0719H91.7161L92.2441 23.5119H81.4201ZM97.8072 27.9999V11.1999H104.095C105.519 11.1999 106.743 11.4319 107.767 11.8959C108.791 12.3439 109.575 12.9999 110.119 13.8639C110.679 14.7119 110.959 15.7439 110.959 16.9599C110.959 18.1439 110.679 19.1679 110.119 20.0319C109.575 20.8799 108.791 21.5359 107.767 21.9999C106.743 22.4479 105.519 22.6719 104.095 22.6719H98.7912L99.5832 21.8559V27.9999H97.8072ZM109.279 27.9999L104.959 21.9039H106.879L111.223 27.9999H109.279ZM99.5832 21.9999L98.7912 21.1599H104.047C105.727 21.1599 106.999 20.7919 107.863 20.0559C108.743 19.3199 109.183 18.2879 109.183 16.9599C109.183 15.6159 108.743 14.5759 107.863 13.8399C106.999 13.1039 105.727 12.7359 104.047 12.7359H98.7912L99.5832 11.8959V21.9999ZM116.255 18.7119H125.135V20.2239H116.255V18.7119ZM116.447 26.4639H126.551V27.9999H114.671V11.1999H126.191V12.7359H116.447V26.4639ZM130.246 27.9999V11.1999H131.71L143.302 25.7919H142.534V11.1999H144.286V27.9999H142.822L131.254 13.4079H132.022V27.9999H130.246Z" fill="#32506D"/>
<path d="M63.992 50.4558V33.6558H67.208L74.36 45.5118H72.656L79.688 33.6558H82.88L82.928 50.4558H79.28L79.256 39.2478H79.928L74.312 48.6798H72.56L66.824 39.2478H67.64V50.4558H63.992ZM86.4339 50.4558V33.6558H90.3219V50.4558H86.4339ZM93.8289 50.4558V33.6558H101.461C103.285 33.6558 104.893 34.0078 106.285 34.7118C107.677 35.3998 108.765 36.3678 109.549 37.6158C110.333 38.8638 110.725 40.3438 110.725 42.0558C110.725 43.7518 110.333 45.2318 109.549 46.4958C108.765 47.7438 107.677 48.7198 106.285 49.4238C104.893 50.1118 103.285 50.4558 101.461 50.4558H93.8289ZM97.7169 47.2638H101.269C102.389 47.2638 103.357 47.0558 104.173 46.6398C105.005 46.2078 105.645 45.5998 106.093 44.8158C106.557 44.0318 106.789 43.1118 106.789 42.0558C106.789 40.9838 106.557 40.0638 106.093 39.2958C105.645 38.5118 105.005 37.9118 104.173 37.4958C103.357 37.0638 102.389 36.8478 101.269 36.8478H97.7169V47.2638ZM116.753 40.4238H124.841V43.4478H116.753V40.4238ZM117.041 47.3358H126.185V50.4558H113.177V33.6558H125.873V36.7758H117.041V47.3358ZM128.799 50.4558V33.6558H132.015L141.927 45.7518H140.367V33.6558H144.207V50.4558H141.015L131.079 38.3598H132.639V50.4558H128.799ZM145.493 50.4558L152.981 33.6558H156.821L164.333 50.4558H160.253L154.109 35.6238H155.645L149.477 50.4558H145.493ZM149.237 46.8558L150.269 43.9038H158.909L159.965 46.8558H149.237Z" fill="#32506D"/>
<path d="M24.8418 12.956C22.6067 11.2466 21.3737 8.63806 21.1423 5.12937L21.0678 3.99999L22.073 4.07681C23.4216 4.17976 25.4663 4.54052 26.3268 4.82715C27.4668 5.20697 29.0187 6.00273 29.6022 6.50647C30.7899 7.53234 31.7318 9.29117 32.0899 11.1523C32.2909 12.1961 32.3826 13.4494 32.2582 13.4494C32.2107 13.4494 32.0059 13.2097 31.8031 12.9167C30.9139 11.6317 28.8902 9.7791 27.3568 8.84619C26.5986 8.38484 25.6168 7.91329 25.6168 8.01029C25.6168 8.03664 25.918 8.26149 26.286 8.50988C27.1022 9.06072 28.7354 10.6476 29.581 11.7112C30.2178 12.5123 31.4839 14.4478 31.4839 14.6201C31.4839 14.6726 30.8619 14.6881 30.1018 14.6546C27.845 14.5549 26.2655 14.0449 24.8418 12.956Z" fill="#6FB790"/>
<path d="M35.3998 9.62367C36.3465 8.38374 37.7913 7.69975 39.7345 7.57137L40.36 7.53006L40.3175 8.08768C40.2605 8.83583 40.0607 9.97011 39.9019 10.4474C39.6916 11.0799 39.2508 11.9408 38.9718 12.2645C38.4037 12.9233 37.4295 13.4459 36.3988 13.6445C35.8207 13.756 35.1265 13.8069 35.1265 13.7378C35.1265 13.7115 35.2593 13.5979 35.4216 13.4854C36.1333 12.9921 37.1593 11.8695 37.676 11.0188C37.9315 10.5982 38.1927 10.0536 38.139 10.0536C38.1244 10.0536 37.9998 10.2207 37.8623 10.4248C37.5572 10.8776 36.6783 11.7836 36.0892 12.2527C35.6455 12.6059 34.5736 13.3083 34.4781 13.3083C34.449 13.3083 34.4405 12.9633 34.4591 12.5416C34.5143 11.2897 34.7967 10.4134 35.3998 9.62367Z" fill="#6FB790"/>
<g filter="url(#filter0_d_140_80)">
<circle cx="30.6729" cy="37.002" r="21.673" fill="#5BAD81" fill-opacity="0.87" shape-rendering="geometricPrecision"/>
</g>
<circle cx="30.7139" cy="36.961" r="19.2512" fill="#A3E09F" fill-opacity="0.87"/>
<circle cx="30.7139" cy="36.961" r="3.32483" fill="#E8EFAD" fill-opacity="0.87"/>
<path d="M22.9489 37.1674C21.6768 36.1955 16.9483 34.6808 16.9771 37.25C17.0024 39.5104 21.3502 38.3116 22.9489 37.1674Z" fill="#578858" stroke="#467446" stroke-width="0.0820946"/>
<path d="M38.4314 36.7262C39.7035 37.698 44.432 39.2127 44.4032 36.6436C44.3779 34.3832 40.0301 35.582 38.4314 36.7262Z" fill="#578858" stroke="#467446" stroke-width="0.0820946"/>
<path d="M30.4951 29.2048C31.4711 27.936 33.0014 23.2125 30.4322 23.2328C28.1717 23.2507 29.3562 27.6024 30.4951 29.2048Z" fill="#578858" stroke="#467446" stroke-width="0.0820946"/>
<path d="M30.8852 44.6888C29.9092 45.9576 28.3789 50.6811 30.9481 50.6608C33.2086 50.6429 32.0241 46.2912 30.8852 44.6888Z" fill="#578858" stroke="#467446" stroke-width="0.0820946"/>
<path d="M36.4133 42.1642C36.6536 43.7469 39.0039 48.1205 40.7675 46.252C42.319 44.608 38.3582 42.4512 36.4133 42.1642Z" fill="#578858" stroke="#467446" stroke-width="0.0820946"/>
<path d="M24.9669 31.7294C24.7266 30.1467 22.3763 25.7731 20.6128 27.6416C19.0612 29.2856 23.022 31.4424 24.9669 31.7294Z" fill="#578858" stroke="#467446" stroke-width="0.0820946"/>
<path d="M25.4946 42.6898C23.9128 42.9362 19.5482 45.3032 21.4234 47.0596C23.0733 48.6049 25.215 44.6358 25.4946 42.6898Z" fill="#578858" stroke="#467446" stroke-width="0.0820946"/>
<path d="M35.8856 31.2038C37.4674 30.9574 41.8321 28.5904 39.9568 26.834C38.3069 25.2887 36.1652 29.2578 35.8856 31.2038Z" fill="#578858" stroke="#467446" stroke-width="0.0820946"/>
<defs>
<filter id="filter0_d_140_80" x="8.99991" y="15.329" width="44.9057" height="45.3162" filterUnits="userSpaceOnUse" color-interpolation-filters="sRGB">
<feFlood flood-opacity="0" result="BackgroundImageFix"/>
<feColorMatrix in="SourceAlpha" type="matrix" values="0 0 0 0 0 0 0 0 0 0 0 0 0 0 0 0 0 0 127 0" result="hardAlpha"/>
<feMorphology radius="0.164189" operator="dilate" in="SourceAlpha" result="effect1_dropShadow_140_80"/>
<feOffset dx="1.23142" dy="1.64189"/>
<feComposite in2="hardAlpha" operator="out"/>
<feColorMatrix type="matrix" values="0 0 0 0 0.272705 0 0 0 0 0.4532 0 0 0 0 0.275616 0 0 0 0.2 0"/>
<feBlend mode="normal" in2="BackgroundImageFix" result="effect1_dropShadow_140_80"/>
<feBlend mode="normal" in="SourceGraphic" in2="effect1_dropShadow_140_80" result="shape"/>
</filter>
</defs>
</svg>
