<svg width="149" height="48" viewBox="0 0 149 48" fill="none" xmlns="http://www.w3.org/2000/svg">
<path d="M44.8145 43V37.75H46.952C47.512 37.75 48.002 37.8625 48.422 38.0875C48.847 38.3075 49.177 38.615 49.412 39.01C49.647 39.405 49.7645 39.86 49.7645 40.375C49.7645 40.89 49.647 41.345 49.412 41.74C49.177 42.135 48.847 42.445 48.422 42.67C48.002 42.89 47.512 43 46.952 43H44.8145ZM45.3695 42.52H46.922C47.387 42.52 47.7895 42.43 48.1295 42.25C48.4745 42.065 48.742 41.8125 48.932 41.4925C49.122 41.1675 49.217 40.795 49.217 40.375C49.217 39.95 49.122 39.5775 48.932 39.2575C48.742 38.9375 48.4745 38.6875 48.1295 38.5075C47.7895 38.3225 47.387 38.23 46.922 38.23H45.3695V42.52ZM51.7683 40.63H54.0483V41.0725H51.7683V40.63ZM51.8583 42.55H54.4008V43H51.3183V38.7625H54.3108V39.2125H51.8583V42.55ZM57.0902 43L55.1927 38.7625H55.7702L57.5252 42.7225H57.2027L58.9727 38.7625H59.5202L57.6227 43H57.0902ZM64.1121 43.045C63.8271 43.045 63.5721 42.9975 63.3471 42.9025C63.1221 42.8075 62.9446 42.675 62.8146 42.505C62.6846 42.335 62.6196 42.14 62.6196 41.92C62.6196 41.655 62.7146 41.415 62.9046 41.2C63.0946 40.98 63.4196 40.755 63.8796 40.525C64.1296 40.395 64.3271 40.2825 64.4721 40.1875C64.6171 40.0875 64.7196 39.9925 64.7796 39.9025C64.8396 39.8075 64.8696 39.7075 64.8696 39.6025C64.8696 39.4525 64.8196 39.3325 64.7196 39.2425C64.6196 39.1525 64.4721 39.1075 64.2771 39.1075C64.0671 39.1075 63.9046 39.16 63.7896 39.265C63.6796 39.365 63.6246 39.4925 63.6246 39.6475C63.6246 39.7675 63.6571 39.8825 63.7221 39.9925C63.7871 40.1025 63.9246 40.26 64.1346 40.465L66.4146 42.7375L66.1146 43.0675L63.7146 40.6825C63.4996 40.4675 63.3521 40.285 63.2721 40.135C63.1971 39.98 63.1596 39.82 63.1596 39.655C63.1596 39.465 63.2046 39.3 63.2946 39.16C63.3846 39.02 63.5121 38.9125 63.6771 38.8375C63.8471 38.7625 64.0446 38.725 64.2696 38.725C64.5846 38.725 64.8346 38.8025 65.0196 38.9575C65.2096 39.1075 65.3046 39.3175 65.3046 39.5875C65.3046 39.7475 65.2646 39.895 65.1846 40.03C65.1096 40.165 64.9846 40.2975 64.8096 40.4275C64.6346 40.5575 64.4021 40.6975 64.1121 40.8475C63.8621 40.9775 63.6646 41.1 63.5196 41.215C63.3746 41.325 63.2721 41.435 63.2121 41.545C63.1521 41.65 63.1221 41.7675 63.1221 41.8975C63.1221 42.1125 63.2146 42.29 63.3996 42.43C63.5846 42.565 63.8296 42.6325 64.1346 42.6325C64.4096 42.6325 64.6571 42.5725 64.8771 42.4525C65.1021 42.3325 65.2921 42.155 65.4471 41.92C65.6021 41.68 65.7171 41.385 65.7921 41.035L66.2046 41.155C66.1146 41.56 65.9721 41.905 65.7771 42.19C65.5821 42.47 65.3446 42.6825 65.0646 42.8275C64.7846 42.9725 64.4671 43.045 64.1121 43.045ZM70.0332 43V37.75H72.1707C72.7307 37.75 73.2207 37.8625 73.6407 38.0875C74.0657 38.3075 74.3957 38.615 74.6307 39.01C74.8657 39.405 74.9832 39.86 74.9832 40.375C74.9832 40.89 74.8657 41.345 74.6307 41.74C74.3957 42.135 74.0657 42.445 73.6407 42.67C73.2207 42.89 72.7307 43 72.1707 43H70.0332ZM70.5882 42.52H72.1407C72.6057 42.52 73.0082 42.43 73.3482 42.25C73.6932 42.065 73.9607 41.8125 74.1507 41.4925C74.3407 41.1675 74.4357 40.795 74.4357 40.375C74.4357 39.95 74.3407 39.5775 74.1507 39.2575C73.9607 38.9375 73.6932 38.6875 73.3482 38.5075C73.0082 38.3225 72.6057 38.23 72.1407 38.23H70.5882V42.52ZM76.987 40.63H79.267V41.0725H76.987V40.63ZM77.077 42.55H79.6195V43H76.537V38.7625H79.5295V39.2125H77.077V42.55ZM83.9726 41.845C83.9726 42.08 83.9076 42.2875 83.7776 42.4675C83.6526 42.6475 83.4676 42.79 83.2226 42.895C82.9826 42.995 82.6851 43.045 82.3301 43.045C82.0051 43.045 81.6926 42.995 81.3926 42.895C81.0976 42.795 80.8651 42.6675 80.6951 42.5125L80.9201 42.0925C81.0751 42.2375 81.2801 42.3575 81.5351 42.4525C81.7951 42.5425 82.0651 42.5875 82.3451 42.5875C82.7351 42.5875 83.0126 42.52 83.1776 42.385C83.3476 42.245 83.4326 42.08 83.4326 41.89C83.4326 41.73 83.3851 41.605 83.2901 41.515C83.1951 41.42 83.0701 41.345 82.9151 41.29C82.7601 41.23 82.5901 41.18 82.4051 41.14C82.2201 41.1 82.0351 41.055 81.8501 41.005C81.6651 40.955 81.4926 40.8875 81.3326 40.8025C81.1776 40.7175 81.0526 40.605 80.9576 40.465C80.8676 40.325 80.8226 40.14 80.8226 39.91C80.8226 39.68 80.8851 39.475 81.0101 39.295C81.1351 39.115 81.3176 38.9725 81.5576 38.8675C81.7976 38.7625 82.0926 38.71 82.4426 38.71C82.6926 38.71 82.9376 38.7425 83.1776 38.8075C83.4226 38.8675 83.6326 38.96 83.8076 39.085L83.6126 39.52C83.4326 39.395 83.2401 39.3075 83.0351 39.2575C82.8301 39.2025 82.6276 39.175 82.4276 39.175C82.0576 39.175 81.7851 39.245 81.6101 39.385C81.4401 39.52 81.3551 39.6875 81.3551 39.8875C81.3551 40.0475 81.4026 40.175 81.4976 40.27C81.5926 40.36 81.7176 40.435 81.8726 40.495C82.0276 40.55 82.1976 40.5975 82.3826 40.6375C82.5726 40.6775 82.7601 40.7225 82.9451 40.7725C83.1301 40.8225 83.3001 40.89 83.4551 40.975C83.6101 41.055 83.7351 41.165 83.8301 41.305C83.9251 41.445 83.9726 41.625 83.9726 41.845ZM85.4608 43V38.7625H86.0008V43H85.4608ZM91.41 42.505C91.28 42.62 91.13 42.72 90.96 42.805C90.79 42.885 90.6075 42.945 90.4125 42.985C90.2225 43.025 90.0275 43.045 89.8275 43.045C89.3875 43.045 88.9925 42.9525 88.6425 42.7675C88.2975 42.5775 88.025 42.32 87.825 41.995C87.625 41.665 87.525 41.2925 87.525 40.8775C87.525 40.4625 87.6225 40.0925 87.8175 39.7675C88.0175 39.4425 88.29 39.185 88.635 38.995C88.98 38.805 89.37 38.71 89.805 38.71C90.15 38.71 90.46 38.7625 90.735 38.8675C91.015 38.9725 91.25 39.13 91.44 39.34L91.095 39.6925C90.92 39.5175 90.725 39.39 90.51 39.31C90.3 39.225 90.0675 39.1825 89.8125 39.1825C89.4825 39.1825 89.185 39.2575 88.92 39.4075C88.655 39.5525 88.445 39.7525 88.29 40.0075C88.14 40.2625 88.065 40.5525 88.065 40.8775C88.065 41.2025 88.14 41.495 88.29 41.755C88.445 42.01 88.655 42.21 88.92 42.355C89.19 42.5 89.495 42.5725 89.835 42.5725C90.08 42.5725 90.3075 42.535 90.5175 42.46C90.7325 42.385 90.9275 42.2675 91.1025 42.1075L91.41 42.505ZM90.8925 42.505V40.8775H91.41V42.505H90.8925ZM93.2201 43V38.7625H93.6626L96.5426 42.3325H96.3326V38.7625H96.8726V43H96.4226L93.5426 39.4225H93.7601V43H93.2201ZM99.2746 40.63H101.555V41.0725H99.2746V40.63ZM99.3646 42.55H101.907V43H98.8246V38.7625H101.817V39.2125H99.3646V42.55ZM103.448 43V38.7625H105.09C105.46 38.7625 105.775 38.82 106.035 38.935C106.3 39.05 106.505 39.2175 106.65 39.4375C106.795 39.6525 106.868 39.915 106.868 40.225C106.868 40.525 106.795 40.785 106.65 41.005C106.505 41.225 106.3 41.3925 106.035 41.5075C105.775 41.6225 105.46 41.68 105.09 41.68H103.748L103.988 41.44V43H103.448ZM106.35 43L105.24 41.4625H105.833L106.935 43H106.35ZM103.988 41.4925L103.778 41.2375H105.068C105.478 41.2375 105.79 41.15 106.005 40.975C106.22 40.795 106.328 40.545 106.328 40.225C106.328 39.9 106.22 39.65 106.005 39.475C105.79 39.3 105.478 39.2125 105.068 39.2125H103.778L103.988 38.9575V41.4925Z" fill="#4C6D8C"/>
<path d="M46.6575 27.336H55.5375V28.872H46.6575V27.336ZM46.8495 36H45.0735V19.2H56.5935V20.736H46.8495V36ZM62.4975 28.416H69.7935V29.832H62.4975V28.416ZM62.7855 34.56H70.9215V36H61.0575V22.44H70.6335V23.88H62.7855V34.56ZM75.8512 36V22.44H77.5792V36H75.8512ZM86.1767 36V23.88H81.4007V22.44H92.6807V23.88H87.9047V36H86.1767ZM102.155 36.144C100.779 36.144 99.5392 35.848 98.4352 35.256C97.3312 34.648 96.4592 33.824 95.8192 32.784C95.1952 31.728 94.8832 30.536 94.8832 29.208C94.8832 27.88 95.1952 26.696 95.8192 25.656C96.4592 24.616 97.3312 23.792 98.4352 23.184C99.5392 22.576 100.779 22.272 102.155 22.272C103.547 22.272 104.787 22.576 105.875 23.184C106.979 23.792 107.843 24.616 108.467 25.656C109.107 26.696 109.427 27.88 109.427 29.208C109.427 30.536 109.107 31.728 108.467 32.784C107.843 33.824 106.979 34.648 105.875 35.256C104.787 35.848 103.547 36.144 102.155 36.144ZM102.155 34.656C103.227 34.656 104.179 34.424 105.011 33.96C105.843 33.48 106.499 32.832 106.979 32.016C107.459 31.184 107.699 30.248 107.699 29.208C107.699 28.168 107.451 27.24 106.955 26.424C106.475 25.608 105.819 24.968 104.987 24.504C104.171 24.024 103.227 23.784 102.155 23.784C101.099 23.784 100.147 24.024 99.2992 24.504C98.4672 24.968 97.8112 25.608 97.3312 26.424C96.8512 27.24 96.6112 28.168 96.6112 29.208C96.6112 30.248 96.8512 31.184 97.3312 32.016C97.8112 32.832 98.4672 33.48 99.2992 33.96C100.147 34.424 101.099 34.656 102.155 34.656ZM112.604 36V34.848L122.012 23.256L122.156 23.88H112.748V22.44H123.764V23.592L114.38 35.16L114.188 34.56H124.004V36H112.604ZM125.921 36L132.185 22.44H133.889L140.153 36H138.425L132.737 23.376H133.337L127.625 36H125.921ZM128.561 32.496L129.065 31.104H136.793L137.297 32.496H128.561Z" fill="#32506D"/>
<path d="M144.657 36.192C143.985 36.192 143.433 35.976 143.001 35.544C142.569 35.112 142.353 34.6 142.353 34.008C142.353 33.4 142.569 32.896 143.001 32.496C143.433 32.08 143.985 31.872 144.657 31.872C145.329 31.872 145.873 32.08 146.289 32.496C146.721 32.896 146.937 33.4 146.937 34.008C146.937 34.6 146.721 35.112 146.289 35.544C145.873 35.976 145.329 36.192 144.657 36.192Z" fill="#80679E"/>
<path d="M21.0684 25.44V31.392H5.66037V25.44H21.0684ZM26.3484 36H17.9004L13.2924 14.352L8.54037 36H0.284374L8.20437 5.184H18.4284L26.3484 36ZM43.0989 24.48H34.9389V19.104C34.9389 18.752 34.8429 18.496 34.6509 18.336C34.4589 18.144 34.1549 18.048 33.7389 18.048H32.9229C32.5069 18.048 32.1869 18.16 31.9629 18.384C31.7389 18.608 31.6269 18.976 31.6269 19.488V20.784H31.3389V16.464C31.3389 15.12 31.7069 14.048 32.4429 13.248C33.2109 12.448 34.3469 12.048 35.8509 12.048H36.7149C38.9869 12.048 40.6189 12.592 41.6109 13.68C42.6029 14.768 43.0989 16.208 43.0989 18V24.48ZM31.6269 42.192H23.4669V12.048H31.4829V16.608H31.6269V42.192ZM34.9389 23.568H43.0989V30.048C43.0989 31.84 42.6029 33.28 41.6109 34.368C40.6189 35.456 38.9869 36 36.7149 36H35.8509C34.3469 36 33.2109 35.6 32.4429 34.8C31.7069 34 31.3389 32.928 31.3389 31.584V27.264H31.6269V28.56C31.6269 29.072 31.7389 29.44 31.9629 29.664C32.1869 29.888 32.5069 30 32.9229 30H33.7389C34.1549 30 34.4589 29.92 34.6509 29.76C34.8429 29.568 34.9389 29.296 34.9389 28.944V23.568Z" fill="#80679E"/>
</svg>
